<?xml version="1.0" encoding="utf-8"?>
<!-- Generator: Adobe Illustrator 18.0.0, SVG Export Plug-In . SVG Version: 6.00 Build 0)  -->
<!DOCTYPE svg PUBLIC "-//W3C//DTD SVG 1.1//EN" "http://www.w3.org/Graphics/SVG/1.1/DTD/svg11.dtd">
<svg version="1.1" id="图层_1" xmlns="http://www.w3.org/2000/svg" xmlns:xlink="http://www.w3.org/1999/xlink" x="0px" y="0px" width="340" height="340"
	 viewBox="0 0 340.2 340.2" enable-background="new 0 0 340.2 340.2" xml:space="preserve">
<line fill="none" stroke="#333333" stroke-width="3" stroke-linecap="round" stroke-linejoin="round" stroke-miterlimit="10" x1="127.6" y1="147.5" x2="127.6" y2="154.9"/>
<line fill="none" stroke="#333333" stroke-width="3" stroke-linecap="round" stroke-linejoin="round" stroke-miterlimit="10" x1="216" y1="147.5" x2="216" y2="154.9"/>
<line fill="none" stroke="#333333" stroke-width="3" stroke-linecap="round" stroke-linejoin="round" stroke-miterlimit="10" x1="171.8" y1="90.6" x2="171.8" y2="104.9"/>
<path fill="none" stroke="#333333" stroke-width="5" stroke-linecap="round" stroke-linejoin="round" stroke-miterlimit="10" d="
	M206.9,161.2c7-24.9-9.5-37.9-20.7-44.2c-9.7-5.5-14.4-13.3-14.4-13.3s-4.7,7.8-14.4,13.3c-11.2,6.4-27.7,19.4-20.7,44.2"/>
<path fill="none" stroke="#333333" stroke-width="5" stroke-linecap="round" stroke-linejoin="round" stroke-miterlimit="10" d="
	M113.3,172.4c0,0-0.9-6.2,5.4-10.8c6.2-4.7,8.9-6.8,8.9-6.8"/>
<path fill="none" stroke="#333333" stroke-width="5" stroke-linecap="round" stroke-linejoin="round" stroke-miterlimit="10" d="
	M230.3,172.4c0,0,0.9-6.2-5.4-10.8c-6.2-4.7-8.9-6.8-8.9-6.8"/>
<path fill="none" stroke="#333333" stroke-width="5" stroke-linecap="round" stroke-linejoin="round" stroke-miterlimit="10" d="
	M141.9,172.4c0,0,0.9-6.2-5.4-10.8c-6.2-4.7-8.9-6.8-8.9-6.8"/>
<path fill="none" stroke="#333333" stroke-width="5" stroke-linecap="round" stroke-linejoin="round" stroke-miterlimit="10" d="
	M201.7,172.4c0,0-0.9-6.2,5.4-10.8c6.2-4.7,8.9-6.8,8.9-6.8"/>
<line fill="none" stroke="#333333" stroke-width="5" stroke-linecap="round" stroke-linejoin="round" stroke-miterlimit="10" x1="113.3" y1="174.1" x2="113.3" y2="184.1"/>
<line fill="none" stroke="#333333" stroke-width="5" stroke-linecap="round" stroke-linejoin="round" stroke-miterlimit="10" x1="230.4" y1="174.1" x2="230.4" y2="184.1"/>
<line fill="none" stroke="#333333" stroke-width="5" stroke-linecap="round" stroke-linejoin="round" stroke-miterlimit="10" x1="113.3" y1="184.1" x2="106.1" y2="184.1"/>
<line fill="none" stroke="#333333" stroke-width="5" stroke-linecap="round" stroke-linejoin="round" stroke-miterlimit="10" x1="230.4" y1="184.1" x2="237.5" y2="184.1"/>
<line fill="none" stroke="#333333" stroke-width="5" stroke-linecap="round" stroke-linejoin="round" stroke-miterlimit="10" x1="106.1" y1="184.1" x2="88.3" y2="189.1"/>
<line fill="none" stroke="#333333" stroke-width="5" stroke-linecap="round" stroke-linejoin="round" stroke-miterlimit="10" x1="237.5" y1="184.1" x2="255.3" y2="189.1"/>
<line fill="none" stroke="#333333" stroke-width="5" stroke-linecap="round" stroke-linejoin="round" stroke-miterlimit="10" x1="88.3" y1="189.1" x2="88.3" y2="250.2"/>
<line fill="none" stroke="#333333" stroke-width="5" stroke-linecap="round" stroke-linejoin="round" stroke-miterlimit="10" x1="255.3" y1="189.1" x2="255.3" y2="250.6"/>
<line fill="none" stroke="#333333" stroke-width="3" stroke-linecap="round" stroke-linejoin="round" stroke-miterlimit="10" x1="72.7" y1="251.4" x2="268.7" y2="251.4"/>
<line fill="none" stroke="#333333" stroke-width="3" stroke-linecap="round" stroke-linejoin="round" stroke-miterlimit="10" x1="153.7" y1="247.2" x2="190" y2="247.2"/>
<path fill="none" stroke="#333333" stroke-width="3" stroke-linecap="round" stroke-linejoin="round" stroke-miterlimit="10" d="
	M136,160.4c0,0,9.9-7.4,35.8-7.4s35.8,7.4,35.8,7.4"/>
<path fill="none" stroke="#333333" stroke-width="3" stroke-linecap="round" stroke-linejoin="round" stroke-miterlimit="10" d="
	M140.8,165.3c0,0,8.4-5.5,31-5.5s31,5.5,31,5.5"/>
<line fill="none" stroke="#333333" stroke-width="3" stroke-linecap="round" stroke-linejoin="round" stroke-miterlimit="10" x1="141.9" y1="172.4" x2="201.7" y2="172.4"/>
<path fill="none" stroke="#333333" stroke-width="3" stroke-linecap="round" stroke-linejoin="round" stroke-miterlimit="10" d="
	M113.3,174.1c6.6-3.8,21.5-4.1,28.7,0"/>
<path fill="none" stroke="#333333" stroke-width="3" stroke-linecap="round" stroke-linejoin="round" stroke-miterlimit="10" d="
	M230.4,174.1c-6.6-3.8-21.5-4.1-28.7,0"/>
<line fill="none" stroke="#333333" stroke-width="3" stroke-linecap="round" stroke-linejoin="round" stroke-miterlimit="10" x1="141.9" y1="174.1" x2="141.9" y2="250.2"/>
<line fill="none" stroke="#333333" stroke-width="3" stroke-linecap="round" stroke-linejoin="round" stroke-miterlimit="10" x1="201.7" y1="174.1" x2="201.7" y2="250.2"/>
<line fill="none" stroke="#333333" stroke-width="3" stroke-linecap="round" stroke-linejoin="round" stroke-miterlimit="10" x1="107.5" y1="184.1" x2="107.5" y2="250.2"/>
<line fill="none" stroke="#333333" stroke-width="3" stroke-linecap="round" stroke-linejoin="round" stroke-miterlimit="10" x1="236.2" y1="184.1" x2="236.2" y2="250.2"/>
<line fill="none" stroke="#333333" stroke-width="3" stroke-linecap="round" stroke-linejoin="round" stroke-miterlimit="10" x1="113.3" y1="184.9" x2="140.8" y2="184.9"/>
<line fill="none" stroke="#333333" stroke-width="3" stroke-linecap="round" stroke-linejoin="round" stroke-miterlimit="10" x1="230.4" y1="184.9" x2="202.8" y2="184.9"/>
<path fill="none" stroke="#333333" stroke-width="3" stroke-linecap="round" stroke-linejoin="round" stroke-miterlimit="10" d="
	M190,251.4v-40.3c0-7.9-9.3-16.4-18.2-18.1c-8.9,1.7-18.2,10.2-18.2,18.1v40.3"/>
<path fill="none" stroke="#333333" stroke-width="3" stroke-linecap="round" stroke-linejoin="round" stroke-miterlimit="10" d="
	M132.3,220.7v-16.2c0-3.2-4-6.6-7.8-7.3c-3.8,0.7-7.8,4.1-7.8,7.3v16.2"/>
<path fill="none" stroke="#333333" stroke-width="3" stroke-linecap="round" stroke-linejoin="round" stroke-miterlimit="10" d="
	M211.2,220.7v-16.2c0-3.2,4-6.6,7.8-7.3c3.8,0.7,7.8,4.1,7.8,7.3v16.2"/>
<line fill="none" stroke="#333333" stroke-width="3" stroke-linecap="round" stroke-linejoin="round" stroke-miterlimit="10" x1="116.8" y1="219" x2="132.3" y2="219"/>
<path fill="none" stroke="#333333" stroke-width="3" stroke-linecap="round" stroke-linejoin="round" stroke-miterlimit="10" d="
	M103.7,220.7"/>
<path fill="none" stroke="#333333" stroke-width="3" stroke-linecap="round" stroke-linejoin="round" stroke-miterlimit="10" d="
	M239.9,220.7"/>
<path fill="none" stroke="#333333" stroke-width="3" stroke-linecap="round" stroke-linejoin="round" stroke-miterlimit="10" d="
	M250.5,222.6"/>
<line fill="none" stroke="#333333" stroke-width="3" stroke-linecap="round" stroke-linejoin="round" stroke-miterlimit="10" x1="226.8" y1="219" x2="211.2" y2="219"/>
<path fill="none" stroke="#333333" stroke-width="3" stroke-linecap="round" stroke-linejoin="round" stroke-miterlimit="10" d="
	M132.3,251.4v-16c0-3.1-4-6.5-7.8-7.2c-3.8,0.7-7.8,4-7.8,7.2v16"/>
<path fill="none" stroke="#333333" stroke-width="3" stroke-linecap="round" stroke-linejoin="round" stroke-miterlimit="10" d="
	M211.2,251.4v-16c0-3.1,4-6.5,7.8-7.2c3.8,0.7,7.8,4,7.8,7.2v16"/>
<line fill="none" stroke="#333333" stroke-width="3" stroke-linecap="round" stroke-linejoin="round" stroke-miterlimit="10" x1="115.9" y1="251.4" x2="131.5" y2="251.4"/>
<line fill="none" stroke="#333333" stroke-width="3" stroke-linecap="round" stroke-linejoin="round" stroke-miterlimit="10" x1="227.7" y1="251.4" x2="212.1" y2="251.4"/>
<line fill="none" stroke="#333333" stroke-width="3" stroke-linecap="round" stroke-linejoin="round" stroke-miterlimit="10" x1="87.5" y1="190.3" x2="87.5" y2="177.2"/>
<line fill="none" stroke="#333333" stroke-width="3" stroke-linecap="round" stroke-linejoin="round" stroke-miterlimit="10" x1="96.2" y1="187.2" x2="96.2" y2="168.5"/>
<line fill="none" stroke="#333333" stroke-width="3" stroke-linecap="round" stroke-linejoin="round" stroke-miterlimit="10" x1="107.5" y1="189.7" x2="107.5" y2="168.5"/>
<g>
	
		<line fill="none" stroke="#333333" stroke-width="3" stroke-linecap="round" stroke-linejoin="round" stroke-miterlimit="10" x1="256.1" y1="190.3" x2="256.1" y2="177.2"/>
	
		<line fill="none" stroke="#333333" stroke-width="3" stroke-linecap="round" stroke-linejoin="round" stroke-miterlimit="10" x1="247.4" y1="187.2" x2="247.4" y2="168.5"/>
	
		<line fill="none" stroke="#333333" stroke-width="3" stroke-linecap="round" stroke-linejoin="round" stroke-miterlimit="10" x1="236.2" y1="189.7" x2="236.2" y2="168.5"/>
</g>
<line fill="none" stroke="#333333" stroke-width="3" stroke-linecap="round" stroke-linejoin="round" stroke-miterlimit="10" x1="147.9" y1="184.9" x2="195.2" y2="184.9"/>
<line fill="none" stroke="#333333" stroke-width="3" stroke-linecap="round" stroke-linejoin="round" stroke-miterlimit="10" x1="147.9" y1="184.9" x2="147.9" y2="250.2"/>
<line fill="none" stroke="#333333" stroke-width="3" stroke-linecap="round" stroke-linejoin="round" stroke-miterlimit="10" x1="195.3" y1="184.9" x2="195.3" y2="250.2"/>
<path fill="none" stroke="#333333" stroke-width="3" stroke-linecap="round" stroke-linejoin="round" stroke-miterlimit="10" d="
	M164.3,113.6c5.7-2.1,9.1-1.9,15.1,0"/>
<line fill="none" stroke="#333333" stroke-width="3" stroke-linecap="round" stroke-linejoin="round" stroke-miterlimit="10" x1="145.3" y1="176.3" x2="193.7" y2="176.3"/>
<line fill="none" stroke="#333333" stroke-width="3" stroke-linecap="round" stroke-linejoin="round" stroke-miterlimit="10" x1="198.5" y1="176.3" x2="196.9" y2="176.3"/>
<line fill="none" stroke="#333333" stroke-width="3" stroke-linecap="round" stroke-linejoin="round" stroke-miterlimit="10" x1="111.9" y1="189.1" x2="133.1" y2="189.1"/>
<line fill="none" stroke="#333333" stroke-width="3" stroke-linecap="round" stroke-linejoin="round" stroke-miterlimit="10" x1="136.6" y1="189.1" x2="138.3" y2="189.1"/>
<line fill="none" stroke="#333333" stroke-width="3" stroke-linecap="round" stroke-linejoin="round" stroke-miterlimit="10" x1="205.8" y1="189.1" x2="227" y2="189.1"/>
<line fill="none" stroke="#333333" stroke-width="3" stroke-linecap="round" stroke-linejoin="round" stroke-miterlimit="10" x1="230.5" y1="189.1" x2="232.2" y2="189.1"/>
<line fill="none" stroke="#333333" stroke-width="3" stroke-linecap="round" stroke-linejoin="round" stroke-miterlimit="10" x1="111.9" y1="193.1" x2="111.9" y2="247.2"/>
<line fill="none" stroke="#333333" stroke-width="3" stroke-linecap="round" stroke-linejoin="round" stroke-miterlimit="10" x1="232.2" y1="193.1" x2="232.2" y2="247.2"/>
<g>
	
		<line fill="none" stroke="#333333" stroke-width="3" stroke-linecap="round" stroke-linejoin="round" stroke-miterlimit="10" x1="150.9" y1="188" x2="155.6" y2="192.6"/>
	
		<line fill="none" stroke="#333333" stroke-width="3" stroke-linecap="round" stroke-linejoin="round" stroke-miterlimit="10" x1="158.1" y1="195" x2="158.1" y2="195"/>
	
		<line fill="none" stroke="#333333" stroke-width="3" stroke-linecap="round" stroke-linejoin="round" stroke-miterlimit="10" x1="156.3" y1="188.2" x2="163" y2="189.7"/>
	
		<line fill="none" stroke="#333333" stroke-width="3" stroke-linecap="round" stroke-linejoin="round" stroke-miterlimit="10" x1="151.1" y1="193.4" x2="153" y2="199.5"/>
</g>
<g>
	
		<line fill="none" stroke="#333333" stroke-width="3" stroke-linecap="round" stroke-linejoin="round" stroke-miterlimit="10" x1="192.2" y1="188" x2="187.5" y2="192.6"/>
	
		<line fill="none" stroke="#333333" stroke-width="3" stroke-linecap="round" stroke-linejoin="round" stroke-miterlimit="10" x1="185" y1="195" x2="185" y2="195"/>
	
		<line fill="none" stroke="#333333" stroke-width="3" stroke-linecap="round" stroke-linejoin="round" stroke-miterlimit="10" x1="186.8" y1="188.2" x2="180.1" y2="189.7"/>
	
		<line fill="none" stroke="#333333" stroke-width="3" stroke-linecap="round" stroke-linejoin="round" stroke-miterlimit="10" x1="192" y1="193.4" x2="190.1" y2="199.5"/>
</g>
<path fill="none" stroke="#333333" stroke-width="3" stroke-linecap="round" stroke-linejoin="round" stroke-miterlimit="10" d="
	M148.9,132.1c0,0,6-7,12.3-9.5"/>
<line fill="none" stroke="#333333" stroke-width="3" stroke-linecap="round" stroke-linejoin="round" stroke-miterlimit="10" x1="146.4" y1="135.5" x2="146.4" y2="135.5"/>
<g>
	
		<line fill="none" stroke="#333333" stroke-width="3" stroke-linecap="round" stroke-linejoin="round" stroke-miterlimit="10" x1="102.3" y1="192.6" x2="102.3" y2="232.2"/>
	
		<line fill="none" stroke="#333333" stroke-width="3" stroke-linecap="round" stroke-linejoin="round" stroke-miterlimit="10" x1="102.3" y1="192.6" x2="95.3" y2="194.3"/>
	
		<line fill="none" stroke="#333333" stroke-width="3" stroke-linecap="round" stroke-linejoin="round" stroke-miterlimit="10" x1="92.3" y1="195" x2="92.3" y2="195"/>
</g>
<g>
	
		<line fill="none" stroke="#333333" stroke-width="3" stroke-linecap="round" stroke-linejoin="round" stroke-miterlimit="10" x1="240.4" y1="193" x2="240.4" y2="232.6"/>
	
		<line fill="none" stroke="#333333" stroke-width="3" stroke-linecap="round" stroke-linejoin="round" stroke-miterlimit="10" x1="240.4" y1="193" x2="247.3" y2="194.7"/>
	
		<line fill="none" stroke="#333333" stroke-width="3" stroke-linecap="round" stroke-linejoin="round" stroke-miterlimit="10" x1="250.3" y1="195.5" x2="250.3" y2="195.5"/>
</g>
<line fill="none" stroke="#333333" stroke-width="3" stroke-linecap="round" stroke-linejoin="round" stroke-miterlimit="10" x1="204.7" y1="259.4" x2="233.9" y2="259.4"/>
<line fill="none" stroke="#333333" stroke-width="3" stroke-linecap="round" stroke-linejoin="round" stroke-miterlimit="10" x1="131.9" y1="259.4" x2="127" y2="259.4"/>
<line fill="none" stroke="#333333" stroke-width="3" stroke-linecap="round" stroke-linejoin="round" stroke-miterlimit="10" x1="244.2" y1="259.4" x2="248.9" y2="259.4"/>
</svg>
