<?xml version="1.0" encoding="utf-8"?>
<!-- Generator: Adobe Illustrator 18.0.0, SVG Export Plug-In . SVG Version: 6.00 Build 0)  -->
<!DOCTYPE svg PUBLIC "-//W3C//DTD SVG 1.1//EN" "http://www.w3.org/Graphics/SVG/1.1/DTD/svg11.dtd">
<svg version="1.1" id="图层_1" xmlns="http://www.w3.org/2000/svg" xmlns:xlink="http://www.w3.org/1999/xlink" x="0px" y="0px" width="340" height="340"
	 viewBox="0 0 340.2 340.2" enable-background="new 0 0 340.2 340.2" xml:space="preserve">
<g>
	<path fill="none" stroke="#333333" stroke-width="5" stroke-linecap="round" stroke-linejoin="round" stroke-miterlimit="10" d="
		M216.7,141.2c4.9-0.3,8.8-0.9,13.3-1.8l3-8.2c4.6-0.8,5.8-1.5,9.8-2.6l5-11.7l3.3-1.3l1.8-5.9c-22.1,8.1-41.8,11.6-78.2,11.7
		c-36.9-0.3-62.5-5.5-83.2-11.7l1.8,5.9l3.3,1.3l5,11.7c4,1.2,6.4,1.9,11,2.6l3,8.2c5.5,0.8,9,1.5,15.1,1.8"/>
	<path fill="none" stroke="#333333" stroke-width="3" stroke-linecap="round" stroke-linejoin="round" stroke-miterlimit="10" d="
		M168.7,141.2c-8.7,0-13.8-0.2-22.8-0.4"/>
	<path fill="none" stroke="#333333" stroke-width="3" stroke-linecap="round" stroke-linejoin="round" stroke-miterlimit="10" d="
		M203.1,140.8c-9,0.2-14.1,0.4-22.8,0.4"/>
	<path fill="none" stroke="#333333" stroke-width="5" stroke-linecap="round" stroke-linejoin="round" stroke-miterlimit="10" d="
		M134.6,164.5c-0.1,4.8-0.1,8.6-0.2,13.3"/>
	<path fill="none" stroke="#333333" stroke-width="5" stroke-linecap="round" stroke-linejoin="round" stroke-miterlimit="10" d="
		M213,164.6c0.1,4.9,0,8.4,0.1,13.2"/>
	<path fill="none" stroke="#333333" stroke-width="3" stroke-linecap="round" stroke-linejoin="round" stroke-miterlimit="10" d="
		M134.7,146.4c0,2.3,0,4.6,0,6.9"/>
	<path fill="none" stroke="#333333" stroke-width="3" stroke-linecap="round" stroke-linejoin="round" stroke-miterlimit="10" d="
		M212.8,146.4c0,2.3,0,4.6,0,6.9"/>
	<path fill="none" stroke="#333333" stroke-width="5" stroke-linecap="round" stroke-linejoin="round" stroke-miterlimit="10" d="
		M142.9,164.6c1.4,27.5,1.4,42.7,2.9,70.9"/>
	<path fill="none" stroke="#333333" stroke-width="5" stroke-linecap="round" stroke-linejoin="round" stroke-miterlimit="10" d="
		M204.5,164.6c-1.4,27.9-1.3,42.7-2.7,70.9"/>
	<path fill="none" stroke="#333333" stroke-width="3" stroke-linecap="round" stroke-linejoin="round" stroke-miterlimit="10" d="
		M142.8,153.5c0-2.3,0-4.7,0-7.1"/>
	<path fill="none" stroke="#333333" stroke-width="3" stroke-linecap="round" stroke-linejoin="round" stroke-miterlimit="10" d="
		M204.7,153.5c0-2.3,0-4.7,0-7.1"/>
	
		<polyline fill="none" stroke="#333333" stroke-width="5" stroke-linecap="round" stroke-linejoin="round" stroke-miterlimit="10" points="
		130.8,141.2 130.8,146.4 134.7,146.4 	"/>
	
		<polyline fill="none" stroke="#333333" stroke-width="5" stroke-linecap="round" stroke-linejoin="round" stroke-miterlimit="10" points="
		216.7,141.2 216.7,146.4 212.8,146.4 	"/>
	
		<polyline fill="none" stroke="#333333" stroke-width="5" stroke-linecap="round" stroke-linejoin="round" stroke-miterlimit="10" points="
		146.2,141.8 146.2,146.4 142.8,146.4 	"/>
	
		<polyline fill="none" stroke="#333333" stroke-width="5" stroke-linecap="round" stroke-linejoin="round" stroke-miterlimit="10" points="
		201.3,142 201.3,146.4 204.7,146.4 	"/>
	<path fill="none" stroke="#333333" stroke-width="5" stroke-linecap="round" stroke-linejoin="round" stroke-miterlimit="10" d="
		M142.8,153.5c10.5,0.8,18.6,0.8,25.6,0.8"/>
	<path fill="none" stroke="#333333" stroke-width="5" stroke-linecap="round" stroke-linejoin="round" stroke-miterlimit="10" d="
		M204.5,153.5c-10.5,0.8-16.5,0.8-23.6,0.8"/>
	<path fill="none" stroke="#333333" stroke-width="5" stroke-linecap="round" stroke-linejoin="round" stroke-miterlimit="10" d="
		M105.4,151c0,0,8.9,1.1,29.2,2.3h0"/>
	<path fill="none" stroke="#333333" stroke-width="5" stroke-linecap="round" stroke-linejoin="round" stroke-miterlimit="10" d="
		M239.1,151c0,0-8.1,1.2-26.2,2.3h0"/>
	
		<line fill="none" stroke="#333333" stroke-width="3" stroke-linecap="round" stroke-linejoin="round" stroke-miterlimit="10" x1="107.9" y1="151.4" x2="110.1" y2="162.4"/>
	
		<line fill="none" stroke="#333333" stroke-width="3" stroke-linecap="round" stroke-linejoin="round" stroke-miterlimit="10" x1="236.6" y1="151.4" x2="234.4" y2="162.5"/>
	<path fill="none" stroke="#333333" stroke-width="3" stroke-linecap="round" stroke-linejoin="round" stroke-miterlimit="10" d="
		M174.4,164.6c-11.5-0.1-19.8-0.5-31.5-0.9"/>
	<path fill="none" stroke="#333333" stroke-width="3" stroke-linecap="round" stroke-linejoin="round" stroke-miterlimit="10" d="
		M174.4,164.6c10.9,0,19-0.1,29.8-0.9"/>
	<path fill="none" stroke="#333333" stroke-width="3" stroke-linecap="round" stroke-linejoin="round" stroke-miterlimit="10" d="
		M134,163.6c-12.4-0.1-16.9-0.8-23.2-1.2"/>
	<path fill="none" stroke="#333333" stroke-width="3" stroke-linecap="round" stroke-linejoin="round" stroke-miterlimit="10" d="
		M213.2,163.6c12.4-0.1,14.3-0.6,20.5-1.1"/>
	<path fill="none" stroke="#333333" stroke-width="3" stroke-linecap="round" stroke-linejoin="round" stroke-miterlimit="10" d="
		M99.1,122.6c0,0,22.1,7.6,59.1,7.6l0.7,2.3h30.9l0.7-2.3c33.9,0,54.9-7.6,54.9-7.6"/>
	
		<line fill="none" stroke="#333333" stroke-width="3" stroke-linecap="round" stroke-linejoin="round" stroke-miterlimit="10" x1="129.1" y1="140.2" x2="146.6" y2="140.8"/>
	
		<line fill="none" stroke="#333333" stroke-width="3" stroke-linecap="round" stroke-linejoin="round" stroke-miterlimit="10" x1="218.6" y1="140.2" x2="200.9" y2="140.9"/>
	
		<line fill="none" stroke="#333333" stroke-width="3" stroke-linecap="round" stroke-linejoin="round" stroke-miterlimit="10" x1="134.5" y1="145.5" x2="142.7" y2="145.5"/>
	
		<line fill="none" stroke="#333333" stroke-width="3" stroke-linecap="round" stroke-linejoin="round" stroke-miterlimit="10" x1="212.8" y1="145.4" x2="204.6" y2="145.4"/>
	
		<line fill="none" stroke="#333333" stroke-width="3" stroke-linecap="round" stroke-linejoin="round" stroke-miterlimit="10" x1="135.6" y1="153.3" x2="135.4" y2="163.3"/>
	
		<line fill="none" stroke="#333333" stroke-width="3" stroke-linecap="round" stroke-linejoin="round" stroke-miterlimit="10" x1="212" y1="153.3" x2="212.1" y2="163.3"/>
	
		<line fill="none" stroke="#333333" stroke-width="3" stroke-linecap="round" stroke-linejoin="round" stroke-miterlimit="10" x1="141.9" y1="153.3" x2="142" y2="163.7"/>
	
		<line fill="none" stroke="#333333" stroke-width="3" stroke-linecap="round" stroke-linejoin="round" stroke-miterlimit="10" x1="205.6" y1="153.2" x2="205.6" y2="163.6"/>
	<path fill="none" stroke="#333333" stroke-width="3" stroke-linecap="round" stroke-linejoin="round" stroke-miterlimit="10" d="
		M180.1,150c-0.3-1.5-0.6-2.5,0-4c-0.6-2.7-0.2-4.4,0.3-6.6c-1.4,0.5-2.4,0.6-4,0.3c-0.5,0.5-1.6,0.5-1.6,0.5s-1.1,0-1.6-0.5
		c-1.6,0.3-2.7,0.2-4-0.3c0.4,2.3,0.8,4,0.3,6.6c0.6,1.6,0.3,2.5,0,4"/>
	<path fill="none" stroke="#333333" stroke-width="3" stroke-linecap="round" stroke-linejoin="round" stroke-miterlimit="10" d="
		M180.1,146.2c-0.3,1.5-0.6,2.5,0,4c-0.6,2.7-0.2,4.4,0.3,6.6c-1.4-0.5-2.4-0.6-4-0.3c-0.5-0.5-1.6-0.5-1.6-0.5s-1.1,0-1.6,0.5
		c-1.6-0.3-2.7-0.2-4,0.3c0.4-2.3,0.8-4,0.3-6.6c0.6-1.6,0.3-2.5,0-4"/>
	
		<line fill="none" stroke="#333333" stroke-width="3" stroke-linecap="round" stroke-linejoin="round" stroke-miterlimit="10" x1="108.1" y1="236.5" x2="160.3" y2="236.5"/>
	
		<line fill="none" stroke="#333333" stroke-width="3" stroke-linecap="round" stroke-linejoin="round" stroke-miterlimit="10" x1="238.5" y1="236.5" x2="187.7" y2="236.5"/>
	
		<line fill="none" stroke="#333333" stroke-width="3" stroke-linecap="round" stroke-linejoin="round" stroke-miterlimit="10" x1="133.3" y1="245.7" x2="143.5" y2="245.7"/>
	
		<line fill="none" stroke="#333333" stroke-width="3" stroke-linecap="round" stroke-linejoin="round" stroke-miterlimit="10" x1="123.2" y1="253.9" x2="129.9" y2="253.9"/>
	
		<line fill="none" stroke="#333333" stroke-width="3" stroke-linecap="round" stroke-linejoin="round" stroke-miterlimit="10" x1="218.5" y1="253.9" x2="225.3" y2="253.9"/>
	
		<line fill="none" stroke="#333333" stroke-width="3" stroke-linecap="round" stroke-linejoin="round" stroke-miterlimit="10" x1="214.2" y1="245.7" x2="204" y2="245.7"/>
	<path fill="none" stroke="#333333" stroke-width="3" stroke-linecap="round" stroke-linejoin="round" stroke-miterlimit="10" d="
		M121.9,180.4c3.7-0.4,5.8-0.9,9.6-2.6"/>
	<path fill="none" stroke="#333333" stroke-width="3" stroke-linecap="round" stroke-linejoin="round" stroke-miterlimit="10" d="
		M225.6,180.4c-3.7-0.4-5.8-0.9-9.6-2.6"/>
	<path fill="none" stroke="#333333" stroke-width="3" stroke-linecap="round" stroke-linejoin="round" stroke-miterlimit="10" d="
		M141.1,180.4c-3.7-0.4-5.8-0.9-9.6-2.6"/>
	<path fill="none" stroke="#333333" stroke-width="3" stroke-linecap="round" stroke-linejoin="round" stroke-miterlimit="10" d="
		M206.4,180.4c3.7-0.4,5.8-0.9,9.6-2.6"/>
	
		<line fill="none" stroke="#333333" stroke-width="3" stroke-linecap="round" stroke-linejoin="round" stroke-miterlimit="10" x1="121.9" y1="180.4" x2="125.4" y2="181.5"/>
	
		<line fill="none" stroke="#333333" stroke-width="3" stroke-linecap="round" stroke-linejoin="round" stroke-miterlimit="10" x1="225.6" y1="180.4" x2="222.1" y2="181.5"/>
	
		<line fill="none" stroke="#333333" stroke-width="3" stroke-linecap="round" stroke-linejoin="round" stroke-miterlimit="10" x1="125.4" y1="181.5" x2="125.4" y2="186.2"/>
	
		<line fill="none" stroke="#333333" stroke-width="3" stroke-linecap="round" stroke-linejoin="round" stroke-miterlimit="10" x1="222.1" y1="181.5" x2="222.1" y2="186.2"/>
	
		<line fill="none" stroke="#333333" stroke-width="3" stroke-linecap="round" stroke-linejoin="round" stroke-miterlimit="10" x1="125.4" y1="186.2" x2="127.6" y2="186.2"/>
	
		<line fill="none" stroke="#333333" stroke-width="3" stroke-linecap="round" stroke-linejoin="round" stroke-miterlimit="10" x1="222.1" y1="186.2" x2="219.9" y2="186.2"/>
	
		<line fill="none" stroke="#333333" stroke-width="3" stroke-linecap="round" stroke-linejoin="round" stroke-miterlimit="10" x1="127.6" y1="186.2" x2="125.4" y2="235.5"/>
	
		<line fill="none" stroke="#333333" stroke-width="3" stroke-linecap="round" stroke-linejoin="round" stroke-miterlimit="10" x1="219.9" y1="186.2" x2="222.1" y2="235.5"/>
	
		<line fill="none" stroke="#333333" stroke-width="3" stroke-linecap="round" stroke-linejoin="round" stroke-miterlimit="10" x1="141.1" y1="180.4" x2="137.5" y2="181.5"/>
	
		<line fill="none" stroke="#333333" stroke-width="3" stroke-linecap="round" stroke-linejoin="round" stroke-miterlimit="10" x1="206.4" y1="180.4" x2="210" y2="181.5"/>
	
		<line fill="none" stroke="#333333" stroke-width="3" stroke-linecap="round" stroke-linejoin="round" stroke-miterlimit="10" x1="137.5" y1="181.5" x2="137.5" y2="186.2"/>
	
		<line fill="none" stroke="#333333" stroke-width="3" stroke-linecap="round" stroke-linejoin="round" stroke-miterlimit="10" x1="210" y1="181.5" x2="210" y2="186.2"/>
	
		<line fill="none" stroke="#333333" stroke-width="3" stroke-linecap="round" stroke-linejoin="round" stroke-miterlimit="10" x1="137.5" y1="186.2" x2="135.4" y2="186.2"/>
	
		<line fill="none" stroke="#333333" stroke-width="3" stroke-linecap="round" stroke-linejoin="round" stroke-miterlimit="10" x1="210" y1="186.2" x2="212.1" y2="186.2"/>
	
		<line fill="none" stroke="#333333" stroke-width="3" stroke-linecap="round" stroke-linejoin="round" stroke-miterlimit="10" x1="135.4" y1="186.2" x2="137.5" y2="235.5"/>
	
		<line fill="none" stroke="#333333" stroke-width="3" stroke-linecap="round" stroke-linejoin="round" stroke-miterlimit="10" x1="212.1" y1="186.2" x2="210" y2="235.5"/>
	
		<line fill="none" stroke="#333333" stroke-width="3" stroke-linecap="round" stroke-linejoin="round" stroke-miterlimit="10" x1="127.6" y1="185.5" x2="135.4" y2="185.5"/>
	
		<line fill="none" stroke="#333333" stroke-width="3" stroke-linecap="round" stroke-linejoin="round" stroke-miterlimit="10" x1="219.9" y1="185.5" x2="212.1" y2="185.5"/>
	
		<line fill="none" stroke="#333333" stroke-width="3" stroke-linecap="round" stroke-linejoin="round" stroke-miterlimit="10" x1="131.5" y1="191.3" x2="131.5" y2="198.6"/>
	
		<line fill="none" stroke="#333333" stroke-width="3" stroke-linecap="round" stroke-linejoin="round" stroke-miterlimit="10" x1="216" y1="191.3" x2="216" y2="198.6"/>
	
		<line fill="none" stroke="#333333" stroke-width="3" stroke-linecap="round" stroke-linejoin="round" stroke-miterlimit="10" x1="131.5" y1="211.7" x2="131.5" y2="219"/>
	
		<line fill="none" stroke="#333333" stroke-width="3" stroke-linecap="round" stroke-linejoin="round" stroke-miterlimit="10" x1="216" y1="211.7" x2="216" y2="219"/>
	
		<line fill="none" stroke="#333333" stroke-width="3" stroke-linecap="round" stroke-linejoin="round" stroke-miterlimit="10" x1="155.5" y1="222.9" x2="174.8" y2="222.9"/>
	
		<line fill="none" stroke="#333333" stroke-width="3" stroke-linecap="round" stroke-linejoin="round" stroke-miterlimit="10" x1="180.4" y1="222.9" x2="181.9" y2="222.9"/>
	
		<line fill="none" stroke="#333333" stroke-width="3" stroke-linecap="round" stroke-linejoin="round" stroke-miterlimit="10" x1="170.5" y1="230.2" x2="190.4" y2="230.2"/>
	
		<line fill="none" stroke="#333333" stroke-width="3" stroke-linecap="round" stroke-linejoin="round" stroke-miterlimit="10" x1="196.3" y1="230.2" x2="198.6" y2="230.2"/>
	
		<line fill="none" stroke="#333333" stroke-width="3" stroke-linecap="round" stroke-linejoin="round" stroke-miterlimit="10" x1="125.4" y1="224.7" x2="87.8" y2="224.7"/>
	
		<line fill="none" stroke="#333333" stroke-width="3" stroke-linecap="round" stroke-linejoin="round" stroke-miterlimit="10" x1="82.5" y1="224.7" x2="79.8" y2="224.7"/>
	
		<line fill="none" stroke="#333333" stroke-width="3" stroke-linecap="round" stroke-linejoin="round" stroke-miterlimit="10" x1="222.3" y1="215.4" x2="257" y2="215.4"/>
	
		<line fill="none" stroke="#333333" stroke-width="3" stroke-linecap="round" stroke-linejoin="round" stroke-miterlimit="10" x1="265.1" y1="215.4" x2="265.1" y2="215.4"/>
	
		<line fill="none" stroke="#333333" stroke-width="3" stroke-linecap="round" stroke-linejoin="round" stroke-miterlimit="10" x1="167.7" y1="236.5" x2="170.5" y2="236.5"/>
	
		<line fill="none" stroke="#333333" stroke-width="5" stroke-linecap="round" stroke-linejoin="round" stroke-miterlimit="10" x1="255.6" y1="108.3" x2="252.9" y2="109.7"/>
	
		<line fill="none" stroke="#333333" stroke-width="5" stroke-linecap="round" stroke-linejoin="round" stroke-miterlimit="10" x1="88.8" y1="108.3" x2="91.5" y2="109.7"/>
	
		<line fill="none" stroke="#333333" stroke-width="3" stroke-linecap="round" stroke-linejoin="round" stroke-miterlimit="10" x1="169.1" y1="156.8" x2="167.8" y2="158"/>
	
		<line fill="none" stroke="#333333" stroke-width="3" stroke-linecap="round" stroke-linejoin="round" stroke-miterlimit="10" x1="181.5" y1="158" x2="180.4" y2="156.7"/>
	
		<line fill="none" stroke="#333333" stroke-width="3" stroke-linecap="round" stroke-linejoin="round" stroke-miterlimit="10" x1="180.2" y1="139.3" x2="181.5" y2="138.1"/>
	
		<line fill="none" stroke="#333333" stroke-width="3" stroke-linecap="round" stroke-linejoin="round" stroke-miterlimit="10" x1="167.8" y1="137.9" x2="168.9" y2="139.2"/>
</g>
</svg>
