<?xml version="1.0" encoding="utf-8"?>
<!-- Generator: Adobe Illustrator 18.0.0, SVG Export Plug-In . SVG Version: 6.00 Build 0)  -->
<!DOCTYPE svg PUBLIC "-//W3C//DTD SVG 1.1//EN" "http://www.w3.org/Graphics/SVG/1.1/DTD/svg11.dtd">
<svg version="1.1" id="图层_1" xmlns="http://www.w3.org/2000/svg" xmlns:xlink="http://www.w3.org/1999/xlink" x="0px" y="0px" width="340" height="340"
	 viewBox="0 0 340.2 340.2" enable-background="new 0 0 340.2 340.2" xml:space="preserve">
<g>
	<path fill="none" stroke="#333333" stroke-width="5" stroke-linecap="round" stroke-linejoin="round" stroke-miterlimit="10" d="
		M170.8,83.4c0,0-2.6-0.1-2.7,1.4c-0.1,0,0.4,7.8-3.9,12.7c-4.4,3.3-7.6,8.7-3.8,14.1c0.1,0-6.5,2.5-6.5,9.2s3.7,8.3,3.7,8.3
		l-14.2,3.2v3.9l12.3,2.5v8.5c0,0-4.7,0.7-4.7,5.6c0,2.9,3.1,4.4,3.1,4.4l-15.5,5.1v3.9l9.5,2.2c0,0-13,6.7-13,24.2
		c0,12.2,8.2,20.4,13.5,24.9c0-0.2-1.7,2.8-1.7,2.8v6.2l-6.3,3.3l-5.5,8.8v14.1c0,0,8.7,4.1,35.6,4.1c0,0,0,0,0,0c0,0,0,0,0,0
		c26.8,0,35.6-4.1,35.6-4.1v-14.1l-5.5-8.8l-6.3-3.3v-6.2c0,0-1.7-3-1.7-2.8c5.3-4.6,13.5-12.7,13.5-24.9c0-17.5-13-24.2-13-24.2
		l9.5-2.2v-3.9l-15.5-5.1c0,0,3.1-1.4,3.1-4.4c0-4.9-4.7-5.6-4.7-5.6v-8.5l12.3-2.5v-3.9l-14.2-3.2c0,0,3.7-1.5,3.7-8.3
		s-6.6-9.2-6.5-9.2c3.8-5.4,0.6-10.8-3.8-14.1c-4.3-4.9-3.8-12.7-3.9-12.7C173.5,83.3,170.8,83.4,170.8,83.4"/>
	<path fill="none" stroke="#333333" stroke-width="3" stroke-linecap="round" stroke-linejoin="round" stroke-miterlimit="10" d="
		M180.8,112.2c0,0-3.8-0.9-10-0.9s-10,0.9-10,0.9"/>
	<path fill="none" stroke="#333333" stroke-width="3" stroke-linecap="round" stroke-linejoin="round" stroke-miterlimit="10" d="
		M183.8,129.9c0,0-4.9-0.9-13-0.9c-8.1,0-13,0.9-13,0.9"/>
	<path fill="none" stroke="#333333" stroke-width="3" stroke-linecap="round" stroke-linejoin="round" stroke-miterlimit="10" d="
		M185.1,138.4c0,0-5.4-0.9-14.3-0.9s-14.3,0.9-14.3,0.9"/>
	<path fill="none" stroke="#333333" stroke-width="3" stroke-linecap="round" stroke-linejoin="round" stroke-miterlimit="10" d="
		M185.1,147.9c0,0-5.4-0.9-14.2-0.9c-8.8,0-14.2,0.9-14.2,0.9"/>
	<path fill="none" stroke="#333333" stroke-width="3" stroke-linecap="round" stroke-linejoin="round" stroke-miterlimit="10" d="
		M187.3,158c0,0-6.3-1.3-16.4-1.3c-10.2,0-16.4,1.3-16.4,1.3"/>
	
		<line fill="none" stroke="#333333" stroke-width="3" stroke-linecap="round" stroke-linejoin="round" stroke-miterlimit="10" x1="147.7" y1="168.3" x2="194" y2="168.3"/>
	<path fill="none" stroke="#333333" stroke-width="3" stroke-linecap="round" stroke-linejoin="round" stroke-miterlimit="10" d="
		M147.7,217.3c9,1.1,16.1,1.6,23.2,1.5c7,0,14.1-0.4,23.2-1.5"/>
	<path fill="none" stroke="#333333" stroke-width="3" stroke-linecap="round" stroke-linejoin="round" stroke-miterlimit="10" d="
		M147.7,227.3c9,1.1,16.1,1.6,23.2,1.5c7,0,14.1-0.4,23.2-1.5"/>
	<path fill="none" stroke="#333333" stroke-width="3" stroke-linecap="round" stroke-linejoin="round" stroke-miterlimit="10" d="
		M136.8,238.1c13.3,1.8,23.7,2.6,34,2.5c10.3,0.1,20.7-0.7,34-2.5"/>
	
		<circle fill="none" stroke="#333333" stroke-width="3" stroke-linecap="round" stroke-linejoin="round" stroke-miterlimit="10" cx="154.3" cy="194.3" r="7.2"/>
	<path fill="none" stroke="#333333" stroke-width="3" stroke-linecap="round" stroke-linejoin="round" stroke-miterlimit="10" d="
		M155.8,201.3c-3.2-0.7-5.6-3.6-5.6-7c0-3.4,2.4-6.3,5.6-7"/>
	
		<ellipse fill="none" stroke="#333333" stroke-width="3" stroke-linecap="round" stroke-linejoin="round" stroke-miterlimit="10" cx="192.4" cy="194.3" rx="5.1" ry="7.2"/>
	<path fill="none" stroke="#333333" stroke-width="3" stroke-linecap="round" stroke-linejoin="round" stroke-miterlimit="10" d="
		M191.2,187.4c1.8,0.8,3.1,3.6,3.1,7c0,3.4-1.3,6.2-3.1,7"/>
	
		<line fill="none" stroke="#333333" stroke-width="5" stroke-linecap="round" stroke-linejoin="round" stroke-miterlimit="10" x1="206.5" y1="244.9" x2="234.5" y2="244.9"/>
	
		<line fill="none" stroke="#333333" stroke-width="5" stroke-linecap="round" stroke-linejoin="round" stroke-miterlimit="10" x1="244.7" y1="244.9" x2="248" y2="244.9"/>
	
		<line fill="none" stroke="#333333" stroke-width="5" stroke-linecap="round" stroke-linejoin="round" stroke-miterlimit="10" x1="139.4" y1="230.9" x2="93.5" y2="230.9"/>
	
		<line fill="none" stroke="#333333" stroke-width="5" stroke-linecap="round" stroke-linejoin="round" stroke-miterlimit="10" x1="83.4" y1="230.9" x2="79.5" y2="230.9"/>
	
		<line fill="none" stroke="#333333" stroke-width="5" stroke-linecap="round" stroke-linejoin="round" stroke-miterlimit="10" x1="198.8" y1="211.9" x2="249.4" y2="211.9"/>
	
		<line fill="none" stroke="#333333" stroke-width="5" stroke-linecap="round" stroke-linejoin="round" stroke-miterlimit="10" x1="261.1" y1="211.9" x2="266.7" y2="211.9"/>
	
		<line fill="none" stroke="#333333" stroke-width="5" stroke-linecap="round" stroke-linejoin="round" stroke-miterlimit="10" x1="220.5" y1="227.3" x2="228.4" y2="227.3"/>
	
		<line fill="none" stroke="#333333" stroke-width="5" stroke-linecap="round" stroke-linejoin="round" stroke-miterlimit="10" x1="115.5" y1="252.7" x2="108.9" y2="252.7"/>
	
		<line fill="none" stroke="#333333" stroke-width="5" stroke-linecap="round" stroke-linejoin="round" stroke-miterlimit="10" x1="138.2" y1="267" x2="132.1" y2="267"/>
	
		<line fill="none" stroke="#333333" stroke-width="5" stroke-linecap="round" stroke-linejoin="round" stroke-miterlimit="10" x1="135.2" y1="215.7" x2="131" y2="215.7"/>
	
		<line fill="none" stroke="#333333" stroke-width="5" stroke-linecap="round" stroke-linejoin="round" stroke-miterlimit="10" x1="116.4" y1="192.7" x2="103.2" y2="192.7"/>
	
		<line fill="none" stroke="#333333" stroke-width="5" stroke-linecap="round" stroke-linejoin="round" stroke-miterlimit="10" x1="170.8" y1="272.8" x2="194" y2="272.8"/>
	
		<line fill="none" stroke="#333333" stroke-width="5" stroke-linecap="round" stroke-linejoin="round" stroke-miterlimit="10" x1="201.4" y1="272.8" x2="204.8" y2="272.8"/>
	<path fill="none" stroke="#333333" stroke-width="3" stroke-linecap="round" stroke-linejoin="round" stroke-miterlimit="10" d="
		M159.7,119.3c0.6-2.3,3.3-3.6,4.9-3.6"/>
	
		<line fill="none" stroke="#333333" stroke-width="3" stroke-linecap="round" stroke-linejoin="round" stroke-miterlimit="10" x1="159.2" y1="122.3" x2="159.2" y2="122.3"/>
	
		<line fill="none" stroke="#333333" stroke-width="3" stroke-linecap="round" stroke-linejoin="round" stroke-miterlimit="10" x1="161" y1="141.3" x2="161" y2="143.5"/>
	
		<line fill="none" stroke="#333333" stroke-width="3" stroke-linecap="round" stroke-linejoin="round" stroke-miterlimit="10" x1="170.9" y1="140.8" x2="170.9" y2="143"/>
	
		<line fill="none" stroke="#333333" stroke-width="3" stroke-linecap="round" stroke-linejoin="round" stroke-miterlimit="10" x1="180.9" y1="141.3" x2="180.9" y2="143.5"/>
	
		<line fill="none" stroke="#333333" stroke-width="3" stroke-linecap="round" stroke-linejoin="round" stroke-miterlimit="10" x1="180.9" y1="224.9" x2="180.9" y2="222.6"/>
	
		<line fill="none" stroke="#333333" stroke-width="3" stroke-linecap="round" stroke-linejoin="round" stroke-miterlimit="10" x1="170.9" y1="225.4" x2="170.9" y2="223.1"/>
	
		<line fill="none" stroke="#333333" stroke-width="3" stroke-linecap="round" stroke-linejoin="round" stroke-miterlimit="10" x1="161" y1="224.9" x2="161" y2="222.6"/>
	
		<line fill="none" stroke="#333333" stroke-width="3" stroke-linecap="round" stroke-linejoin="round" stroke-miterlimit="10" x1="152.4" y1="224" x2="152.4" y2="221.7"/>
	
		<line fill="none" stroke="#333333" stroke-width="3" stroke-linecap="round" stroke-linejoin="round" stroke-miterlimit="10" x1="188.5" y1="224" x2="188.5" y2="221.7"/>
	<path fill="none" stroke="#333333" stroke-width="3" stroke-linecap="round" stroke-linejoin="round" stroke-miterlimit="10" d="
		M142.2,185.3c1.5-5.9,5.8-10.8,11.5-13.1"/>
	
		<line fill="none" stroke="#333333" stroke-width="3" stroke-linecap="round" stroke-linejoin="round" stroke-miterlimit="10" x1="141.3" y1="189.3" x2="141.3" y2="189.3"/>
</g>
</svg>
