<?xml version="1.0" encoding="utf-8"?>
<!-- Generator: Adobe Illustrator 18.0.0, SVG Export Plug-In . SVG Version: 6.00 Build 0)  -->
<!DOCTYPE svg PUBLIC "-//W3C//DTD SVG 1.1//EN" "http://www.w3.org/Graphics/SVG/1.1/DTD/svg11.dtd">
<svg version="1.1" id="图层_1" xmlns="http://www.w3.org/2000/svg" xmlns:xlink="http://www.w3.org/1999/xlink" x="0px" y="0px" width="340" height="340"
	 viewBox="0 0 340.2 340.2" enable-background="new 0 0 340.2 340.2" xml:space="preserve">
<g>
	<path fill="none" stroke="#333333" stroke-width="5" stroke-linecap="round" stroke-linejoin="round" stroke-miterlimit="10" d="
		M292.4,226.1"/>
</g>
<polyline fill="none" stroke="#333333" stroke-width="5" stroke-linecap="round" stroke-linejoin="round" stroke-miterlimit="10" points="
	125.6,153.5 175.1,104 225.1,153.9 "/>
<polyline fill="none" stroke="#333333" stroke-width="5" stroke-linecap="round" stroke-linejoin="round" stroke-miterlimit="10" points="
	64.8,201.5 118.8,147.5 172.8,201.5 "/>
<path fill="none" stroke="#333333" stroke-width="5" stroke-linecap="round" stroke-linejoin="round" stroke-miterlimit="10" d="
	M173.3,206.5"/>
<path fill="none" stroke="#333333" stroke-width="5" stroke-linecap="round" stroke-linejoin="round" stroke-miterlimit="10" d="
	M179.5,206.5"/>
<polyline fill="none" stroke="#333333" stroke-width="5" stroke-linecap="round" stroke-linejoin="round" stroke-miterlimit="10" points="
	184,195.8 231,148.8 278.3,195.8 "/>
<line fill="none" stroke="#333333" stroke-width="3" stroke-linecap="round" stroke-linejoin="round" stroke-miterlimit="10" x1="118.8" y1="147.5" x2="87.1" y2="195.1"/>
<line fill="none" stroke="#333333" stroke-width="3" stroke-linecap="round" stroke-linejoin="round" stroke-miterlimit="10" x1="175.1" y1="104" x2="141.5" y2="171.3"/>
<line fill="none" stroke="#333333" stroke-width="3" stroke-linecap="round" stroke-linejoin="round" stroke-miterlimit="10" x1="231" y1="148.8" x2="216.3" y2="189.2"/>
<line fill="none" stroke="#333333" stroke-width="3" stroke-linecap="round" stroke-linejoin="round" stroke-miterlimit="10" x1="53.8" y1="202.4" x2="172.7" y2="202.4"/>
<line fill="none" stroke="#333333" stroke-width="3" stroke-linecap="round" stroke-linejoin="round" stroke-miterlimit="10" x1="184.1" y1="196.7" x2="288.8" y2="196.7"/>
<line fill="none" stroke="#333333" stroke-width="3" stroke-linecap="round" stroke-linejoin="round" stroke-miterlimit="10" x1="159.5" y1="189.5" x2="190.3" y2="189.5"/>
<line fill="none" stroke="#333333" stroke-width="3" stroke-linecap="round" stroke-linejoin="round" stroke-miterlimit="10" x1="84.6" y1="198.5" x2="84.6" y2="198.5"/>
<line fill="none" stroke="#333333" stroke-width="3" stroke-linecap="round" stroke-linejoin="round" stroke-miterlimit="10" x1="214.9" y1="193.2" x2="214.9" y2="193.2"/>
<line fill="none" stroke="#333333" stroke-width="3" stroke-linecap="round" stroke-linejoin="round" stroke-miterlimit="10" x1="122.5" y1="214" x2="220.9" y2="214"/>
<line fill="none" stroke="#333333" stroke-width="3" stroke-linecap="round" stroke-linejoin="round" stroke-miterlimit="10" x1="96.8" y1="214" x2="111.6" y2="214"/>
<line fill="none" stroke="#333333" stroke-width="3" stroke-linecap="round" stroke-linejoin="round" stroke-miterlimit="10" x1="204.8" y1="244.7" x2="251.8" y2="244.7"/>
<line fill="none" stroke="#333333" stroke-width="3" stroke-linecap="round" stroke-linejoin="round" stroke-miterlimit="10" x1="147.4" y1="244.7" x2="194.3" y2="244.7"/>
<line fill="none" stroke="#333333" stroke-width="3" stroke-linecap="round" stroke-linejoin="round" stroke-miterlimit="10" x1="152.3" y1="228.7" x2="226.9" y2="228.7"/>
<path fill="none" stroke="#333333" stroke-width="3" stroke-linecap="round" stroke-linejoin="round" stroke-miterlimit="10" d="
	M227.2,228.7c4,0,7.3-3.3,7.3-7.3c0-4-3.3-7.3-7.3-7.3"/>
<path fill="none" stroke="#333333" stroke-width="3" stroke-linecap="round" stroke-linejoin="round" stroke-miterlimit="10" d="
	M146.8,244.7c-4.5,0-8.1-3.6-8.1-8c0-4.5,3.6-8.1,8.1-8"/>
<line fill="none" stroke="#333333" stroke-width="3" stroke-linecap="round" stroke-linejoin="round" stroke-miterlimit="10" x1="203.1" y1="206.7" x2="220.9" y2="206.7"/>
<line fill="none" stroke="#333333" stroke-width="3" stroke-linecap="round" stroke-linejoin="round" stroke-miterlimit="10" x1="111.6" y1="177.5" x2="148.9" y2="177.5"/>
<line fill="none" stroke="#333333" stroke-width="3" stroke-linecap="round" stroke-linejoin="round" stroke-miterlimit="10" x1="121" y1="188.3" x2="158.7" y2="188.3"/>
<line fill="none" stroke="#333333" stroke-width="3" stroke-linecap="round" stroke-linejoin="round" stroke-miterlimit="10" x1="113" y1="188.3" x2="115.6" y2="188.3"/>
<line fill="none" stroke="#333333" stroke-width="3" stroke-linecap="round" stroke-linejoin="round" stroke-miterlimit="10" x1="177.5" y1="128.6" x2="198" y2="128.6"/>
<line fill="none" stroke="#333333" stroke-width="3" stroke-linecap="round" stroke-linejoin="round" stroke-miterlimit="10" x1="164.4" y1="150.3" x2="220.9" y2="150.3"/>
<line fill="none" stroke="#333333" stroke-width="3" stroke-linecap="round" stroke-linejoin="round" stroke-miterlimit="10" x1="184.4" y1="161.2" x2="217" y2="161.2"/>
<line fill="none" stroke="#333333" stroke-width="3" stroke-linecap="round" stroke-linejoin="round" stroke-miterlimit="10" x1="176.4" y1="161.2" x2="179.2" y2="161.2"/>
<line fill="none" stroke="#333333" stroke-width="3" stroke-linecap="round" stroke-linejoin="round" stroke-miterlimit="10" x1="238.5" y1="172" x2="253.9" y2="172"/>
<line fill="none" stroke="#333333" stroke-width="3" stroke-linecap="round" stroke-linejoin="round" stroke-miterlimit="10" x1="247.9" y1="181.5" x2="263.3" y2="181.5"/>
<line fill="none" stroke="#333333" stroke-width="3" stroke-linecap="round" stroke-linejoin="round" stroke-miterlimit="10" x1="237.1" y1="190.1" x2="272" y2="190.1"/>
<line fill="none" stroke="#333333" stroke-width="3" stroke-linecap="round" stroke-linejoin="round" stroke-miterlimit="10" x1="228.9" y1="190.1" x2="230.5" y2="190.1"/>
</svg>
