<?xml version="1.0" encoding="utf-8"?>
<!-- Generator: Adobe Illustrator 18.0.0, SVG Export Plug-In . SVG Version: 6.00 Build 0)  -->
<!DOCTYPE svg PUBLIC "-//W3C//DTD SVG 1.1//EN" "http://www.w3.org/Graphics/SVG/1.1/DTD/svg11.dtd">
<svg version="1.1" id="图层_1" xmlns="http://www.w3.org/2000/svg" xmlns:xlink="http://www.w3.org/1999/xlink" x="0px" y="0px" width="340" height="340"
	 viewBox="0 0 340.2 340.2" enable-background="new 0 0 340.2 340.2" xml:space="preserve">
<path fill="none" stroke="#333333" stroke-width="5" stroke-linecap="round" stroke-linejoin="round" stroke-miterlimit="10" d="
	M149.8,100.5c2-3.9,6-6.4,10.3-5.4c13.9,3.2,24.7,11.7,31.4,23.1"/>
<path fill="none" stroke="#333333" stroke-width="5" stroke-linecap="round" stroke-linejoin="round" stroke-miterlimit="10" d="
	M191.5,118.2c2.7,4.5,3.3,9.9,1.6,14.9"/>
<path fill="none" stroke="#333333" stroke-width="5" stroke-linecap="round" stroke-linejoin="round" stroke-miterlimit="10" d="
	M149.8,100.5c-3.3,0.2-6,2.6-6.6,5.8"/>
<path fill="none" stroke="#333333" stroke-width="5" stroke-linecap="round" stroke-linejoin="round" stroke-miterlimit="10" d="
	M143.2,106.4c-3,15.4-4.5,52.5-2.5,60.6c0.6,2.5,4.4,4,7.2,3.6"/>
<path fill="none" stroke="#333333" stroke-width="5" stroke-linecap="round" stroke-linejoin="round" stroke-miterlimit="10" d="
	M149,190.7c0.1,2.9-0.4,6-1.9,8.5c-1.8,2.9-6,5.1-11.3,8.2c-2.5,1.5-7.7,5.1-9.4,7.4c-3,4.1-8.6,9.1-5.1,38.2"/>
<path fill="none" stroke="#333333" stroke-width="5" stroke-linecap="round" stroke-linejoin="round" stroke-miterlimit="10" d="
	M200.7,211.7c-0.6,2.2-1.4,4.3-2.5,6.4"/>
<path fill="none" stroke="#333333" stroke-width="5" stroke-linecap="round" stroke-linejoin="round" stroke-miterlimit="10" d="
	M198.2,218c5,9.8,11.5,33.7,11.6,35"/>
<line fill="none" stroke="#333333" stroke-width="3" stroke-linecap="round" stroke-linejoin="round" stroke-miterlimit="10" x1="187" y1="131" x2="192.2" y2="133.7"/>
<path fill="none" stroke="#333333" stroke-width="5" stroke-linecap="round" stroke-linejoin="round" stroke-miterlimit="10" d="
	M147.9,170.6c-0.1,5.9-0.8,10-1.3,15.6c-0.2,2.2,0.7,2.9,2,4c12.2,10.6,24.3,18.6,38.8,20.5c6,0.8,12.1,1.3,18.2,0.7
	c1.2-0.1,2.3-0.8,2.9-1.8c0.6-1,0.7-2.3,0.3-3.4c-2.8-7.5-4-15.5-4.5-23.5c1.5-0.6,2.4-2.1,2.4-3.7c0-1.6-1.1-3-2.6-3.6
	c0-0.6,0-1.3,0-1.9c0.1-4.6-0.2-9.2-1-13.6c0.3-0.6,0.6-1.2,1-2c2-4.7-0.5-8.1-5.5-12.1c0,0,0,0,0-0.1c-1.3-2.7-2.7-5.1-4.5-7.7
	c-1.1-1.5-1.9-3.2-1-4.8"/>
<path fill="none" stroke="#333333" stroke-width="3" stroke-linecap="round" stroke-linejoin="round" stroke-miterlimit="10" d="
	M204.7,176.5c0,0-4.6-1.3-7.7-3c-4.4-2.1-11.1-2.7-16-0.5"/>
<path fill="none" stroke="#333333" stroke-width="3" stroke-linecap="round" stroke-linejoin="round" stroke-miterlimit="10" d="
	M189.6,179.1c3.3,0.7,6.5,1.8,9.5,3.4"/>
<path fill="none" stroke="#333333" stroke-width="3" stroke-linecap="round" stroke-linejoin="round" stroke-miterlimit="10" d="
	M150.3,99.8c2.5,6.8,1.5,14.3-2.7,20.2c3,13.9,3.1,28.3,4.5,42.4c0.3,3.2-1,6.8-4.5,7.3"/>
<path fill="none" stroke="#333333" stroke-width="3" stroke-linecap="round" stroke-linejoin="round" stroke-miterlimit="10" d="
	M190.3,118.2c-3.8-4.8-9.2-8.6-15.3-10c-7.6-1.7-18.3,1.5-21.5,11.3c0,0,17.7,5.7,17.7,5.7"/>
<path fill="none" stroke="#333333" stroke-width="3" stroke-linecap="round" stroke-linejoin="round" stroke-miterlimit="10" d="
	M202.3,159.6c-3.8,7.1-3.3,8.3-18.9,2c-1.8-0.7-3.6-1.6-3.8-3.6c-0.2-2,1.1-3.6,2.9-4.3c6.9-2.7,20.7-4,21.3-0.2"/>
<line fill="none" stroke="#333333" stroke-width="3" stroke-linecap="round" stroke-linejoin="round" stroke-miterlimit="10" x1="81.4" y1="254.4" x2="258.8" y2="254.4"/>
<path fill="none" stroke="#333333" stroke-width="3" stroke-linecap="round" stroke-linejoin="round" stroke-miterlimit="10" d="
	M175.8,144.1l-4.6-18.8c1-1.5,3.1-3.1,4.9-3.4c1.8-0.3,3.6,0.1,5.1,1.2c8.3,12.4,16.5,23.1,16.5,23.1"/>
<line fill="none" stroke="#333333" stroke-width="3" stroke-linecap="round" stroke-linejoin="round" stroke-miterlimit="10" x1="176.8" y1="148.3" x2="176.8" y2="148.3"/>
<path fill="none" stroke="#333333" stroke-width="2" stroke-linecap="round" stroke-linejoin="round" stroke-miterlimit="10" d="
	M149.9,193.1c0.5,0.4,12.2,13.6,23.2,22.2c11.9,9.3,20.7,8.6,24,2c5,9.8,10.9,26.1,12.8,35.8"/>
<line fill="none" stroke="#333333" stroke-width="3" stroke-linecap="round" stroke-linejoin="round" stroke-miterlimit="10" x1="139.8" y1="234.8" x2="143.1" y2="254.2"/>
<line fill="none" stroke="#333333" stroke-width="3" stroke-linecap="round" stroke-linejoin="round" stroke-miterlimit="10" x1="138.9" y1="229.8" x2="138.9" y2="229.8"/>
</svg>
