<?xml version="1.0" encoding="utf-8"?>
<!-- Generator: Adobe Illustrator 18.0.0, SVG Export Plug-In . SVG Version: 6.00 Build 0)  -->
<!DOCTYPE svg PUBLIC "-//W3C//DTD SVG 1.1//EN" "http://www.w3.org/Graphics/SVG/1.1/DTD/svg11.dtd">
<svg version="1.1" id="图层_1" xmlns="http://www.w3.org/2000/svg" xmlns:xlink="http://www.w3.org/1999/xlink" x="0px" y="0px" width="340" height="340"
	 viewBox="0 0 340.2 340.2" enable-background="new 0 0 340.2 340.2" xml:space="preserve">
<g>
	<path fill="none" stroke="#333333" stroke-width="5" stroke-linecap="round" stroke-linejoin="round" stroke-miterlimit="10" d="
		M62.3,228.2c31.7-10.4,71.4-36.6,99.4-64.1l4.1-4.5c1.2-0.5,5.6,1.2,5.6,1.2l2-2.2l2.4,0.7l1.4-1.2c0,0,2,3.2,4.8,5.9"/>
	<path fill="none" stroke="#333333" stroke-width="5" stroke-linecap="round" stroke-linejoin="round" stroke-miterlimit="10" d="
		M278.5,227.1c-31.7-10.4-68.4-35.5-96.4-62.9"/>
	<path fill="none" stroke="#333333" stroke-width="3" stroke-linecap="round" stroke-linejoin="round" stroke-miterlimit="10" d="
		M125.6,194.2l3.6,1c2.5-0.7,6.6-3.5,6.6-3.5c1,1,3.9,2.4,3.9,2.4c1.9-0.3,7.1-2.4,12.1-5.6c0,3.1,0,4.8-1.7,9.5
		c7.4-3,11-5.5,15.3-8.6c-0.9,2.5-1.2,4-1.5,6.1c4.2-2.7,8.1-3.7,13.4-4.8c3.1-1.1,4.2-2.5,5.9-5c2.6,1.4,4.1,2.6,6.4,2.5
		c2.4,3.5,4.6,3.7,7.7,5.4c-1.1-1.9-1.8-3-2.3-5.4c3.9,2.9,11.3,6.3,11.3,6.3c-0.8-2-2-3-4-4.6c5.5,2.7,9.7,3.8,15.1,4"/>
	<path fill="none" stroke="#333333" stroke-width="3" stroke-linecap="round" stroke-linejoin="round" stroke-miterlimit="10" d="
		M174.9,171c2.5,6.4,5.3,10.4,8.3,14.8"/>
	<path fill="none" stroke="#333333" stroke-width="3" stroke-linecap="round" stroke-linejoin="round" stroke-miterlimit="10" d="
		M185,178.8c4.1,4.5,7.5,6.9,10.1,9.4"/>
	<path fill="none" stroke="#333333" stroke-width="3" stroke-linecap="round" stroke-linejoin="round" stroke-miterlimit="10" d="
		M135.9,191.7c4.9-2.1,10.4-6.1,14.3-9.5"/>
	<path fill="none" stroke="#333333" stroke-width="3" stroke-linecap="round" stroke-linejoin="round" stroke-miterlimit="10" d="
		M151.9,188.5c2.2-1.5,7.4-6.3,7.4-6.3"/>
	
		<line fill="none" stroke="#333333" stroke-width="3" stroke-linecap="round" stroke-linejoin="round" stroke-miterlimit="10" x1="65" y1="229.9" x2="276.8" y2="229.9"/>
</g>
<line fill="none" stroke="#333333" stroke-width="3" stroke-linecap="round" stroke-linejoin="round" stroke-miterlimit="10" x1="100" y1="241" x2="135.9" y2="241"/>
<line fill="none" stroke="#333333" stroke-width="3" stroke-linecap="round" stroke-linejoin="round" stroke-miterlimit="10" x1="146.3" y1="241" x2="151.7" y2="241"/>
<line fill="none" stroke="#333333" stroke-width="3" stroke-linecap="round" stroke-linejoin="round" stroke-miterlimit="10" x1="143.6" y1="270.2" x2="149" y2="270.2"/>
<line fill="none" stroke="#333333" stroke-width="3" stroke-linecap="round" stroke-linejoin="round" stroke-miterlimit="10" x1="197.4" y1="260.2" x2="202.8" y2="260.2"/>
<line fill="none" stroke="#333333" stroke-width="3" stroke-linecap="round" stroke-linejoin="round" stroke-miterlimit="10" x1="163.5" y1="260.2" x2="188.7" y2="260.2"/>
<line fill="none" stroke="#333333" stroke-width="3" stroke-linecap="round" stroke-linejoin="round" stroke-miterlimit="10" x1="226.2" y1="246.6" x2="248.4" y2="246.6"/>
<line fill="none" stroke="#333333" stroke-width="3" stroke-linecap="round" stroke-linejoin="round" stroke-miterlimit="10" x1="130.9" y1="250" x2="206.3" y2="250"/>
<line fill="none" stroke="#333333" stroke-width="3" stroke-linecap="round" stroke-linejoin="round" stroke-miterlimit="10" x1="216.4" y1="250" x2="221.7" y2="250"/>
<path fill="none" stroke="#333333" stroke-width="5" stroke-linecap="round" stroke-linejoin="round" stroke-miterlimit="10" d="
	M229,148.5c2.6-0.6,5.1-1.3,7.6-2.1c0,0,0,0,0,0c2.6-0.8,5-1.8,7.4-2.7c6.9-2.8,13-6.2,18.1-9.5c0,0,0,0,0,0
	c7.9-5,13.5-9.9,16.2-12.4"/>
<path fill="none" stroke="#333333" stroke-width="3" stroke-linecap="round" stroke-linejoin="round" stroke-miterlimit="10" d="
	M244,143.7c0,0-7.4,12.5-15.1,23.1"/>
<path fill="none" stroke="#333333" stroke-width="3" stroke-linecap="round" stroke-linejoin="round" stroke-miterlimit="10" d="
	M262.1,134.2c0,0-8.7,1.1-17.8-1.7"/>
<path fill="none" stroke="#333333" stroke-width="5" stroke-linecap="round" stroke-linejoin="round" stroke-miterlimit="10" d="
	M160.3,122.8c30.7,4.9,56.5,3.6,75.9,0.7c0,0,0,0,0,0c20-3.1,33-8,37.4-9.8"/>
<path fill="none" stroke="#333333" stroke-width="5" stroke-linecap="round" stroke-linejoin="round" stroke-miterlimit="10" d="
	M236.2,123.5c0,0-26.8-8.2-34.8-13.2"/>
<path fill="none" stroke="#333333" stroke-width="3" stroke-linecap="round" stroke-linejoin="round" stroke-miterlimit="10" d="
	M177.2,125l-17.3,11.8c0,0-16,3.3-20.8,5.5"/>
<line fill="none" stroke="#333333" stroke-width="3" stroke-linecap="round" stroke-linejoin="round" stroke-miterlimit="10" x1="138.3" y1="136.6" x2="138.4" y2="134.9"/>
<line fill="none" stroke="#333333" stroke-width="3" stroke-linecap="round" stroke-linejoin="round" stroke-miterlimit="10" x1="135.2" y1="137.7" x2="133.3" y2="136.7"/>
<line fill="none" stroke="#333333" stroke-width="3" stroke-linecap="round" stroke-linejoin="round" stroke-miterlimit="10" x1="134.4" y1="141" x2="133.1" y2="141.5"/>
<line fill="none" stroke="#333333" stroke-width="3" stroke-linecap="round" stroke-linejoin="round" stroke-miterlimit="10" x1="163.2" y1="139.5" x2="165.3" y2="139.6"/>
<line fill="none" stroke="#333333" stroke-width="3" stroke-linecap="round" stroke-linejoin="round" stroke-miterlimit="10" x1="161.2" y1="141.8" x2="162.1" y2="143.8"/>
<line fill="none" stroke="#333333" stroke-width="3" stroke-linecap="round" stroke-linejoin="round" stroke-miterlimit="10" x1="157.9" y1="142.7" x2="157.6" y2="143.7"/>
<line fill="none" stroke="#333333" stroke-width="3" stroke-linecap="round" stroke-linejoin="round" stroke-miterlimit="10" x1="209" y1="114" x2="202.9" y2="99.3"/>
<path fill="none" stroke="#333333" stroke-width="3" stroke-linecap="round" stroke-linejoin="round" stroke-miterlimit="10" d="
	M236.6,146.4c0,0-10.1-1.5-27.2-7.3"/>
<path fill="none" stroke="#333333" stroke-width="3" stroke-linecap="round" stroke-linejoin="round" stroke-miterlimit="10" d="
	M152.3,138.4c0,0-13.3-7.8-31.4-12.2"/>
<line fill="none" stroke="#333333" stroke-width="3" stroke-linecap="round" stroke-linejoin="round" stroke-miterlimit="10" x1="120.5" y1="122.7" x2="119.6" y2="121.4"/>
<line fill="none" stroke="#333333" stroke-width="3" stroke-linecap="round" stroke-linejoin="round" stroke-miterlimit="10" x1="124.5" y1="122" x2="124.8" y2="120.5"/>
<line fill="none" stroke="#333333" stroke-width="3" stroke-linecap="round" stroke-linejoin="round" stroke-miterlimit="10" x1="127.5" y1="124.3" x2="128.8" y2="124.1"/>
<path fill="none" stroke="#333333" stroke-width="3" stroke-linecap="round" stroke-linejoin="round" stroke-miterlimit="10" d="
	M197,114.2"/>
<line fill="none" stroke="#333333" stroke-width="3" stroke-linecap="round" stroke-linejoin="round" stroke-miterlimit="10" x1="210.3" y1="108.9" x2="212" y2="108.3"/>
<line fill="none" stroke="#333333" stroke-width="3" stroke-linecap="round" stroke-linejoin="round" stroke-miterlimit="10" x1="209.6" y1="104.6" x2="209.7" y2="103.3"/>
<line fill="none" stroke="#333333" stroke-width="3" stroke-linecap="round" stroke-linejoin="round" stroke-miterlimit="10" x1="200.2" y1="93.8" x2="201.1" y2="95.7"/>
<line fill="none" stroke="#333333" stroke-width="3" stroke-linecap="round" stroke-linejoin="round" stroke-miterlimit="10" x1="205.1" y1="94.4" x2="204.7" y2="95.8"/>
<line fill="none" stroke="#333333" stroke-width="3" stroke-linecap="round" stroke-linejoin="round" stroke-miterlimit="10" x1="197.3" y1="97.8" x2="198.3" y2="98.1"/>
<line fill="none" stroke="#333333" stroke-width="3" stroke-linecap="round" stroke-linejoin="round" stroke-miterlimit="10" x1="197" y1="114.2" x2="195.7" y2="114.3"/>
<line fill="none" stroke="#333333" stroke-width="3" stroke-linecap="round" stroke-linejoin="round" stroke-miterlimit="10" x1="199.5" y1="117.3" x2="198.2" y2="118.5"/>
<line fill="none" stroke="#333333" stroke-width="3" stroke-linecap="round" stroke-linejoin="round" stroke-miterlimit="10" x1="203.6" y1="118.7" x2="203.6" y2="119.6"/>
<line fill="none" stroke="#333333" stroke-width="3" stroke-linecap="round" stroke-linejoin="round" stroke-miterlimit="10" x1="168.4" y1="114.7" x2="169" y2="115.3"/>
<line fill="none" stroke="#333333" stroke-width="3" stroke-linecap="round" stroke-linejoin="round" stroke-miterlimit="10" x1="172.7" y1="112.8" x2="172.6" y2="114.3"/>
<line fill="none" stroke="#333333" stroke-width="3" stroke-linecap="round" stroke-linejoin="round" stroke-miterlimit="10" x1="176.7" y1="116" x2="175.6" y2="116.1"/>
<line fill="none" stroke="#333333" stroke-width="3" stroke-linecap="round" stroke-linejoin="round" stroke-miterlimit="10" x1="171.2" y1="118.5" x2="170.6" y2="119.3"/>
<line fill="none" stroke="#333333" stroke-width="3" stroke-linecap="round" stroke-linejoin="round" stroke-miterlimit="10" x1="211.3" y1="134.7" x2="211.5" y2="135.6"/>
<line fill="none" stroke="#333333" stroke-width="3" stroke-linecap="round" stroke-linejoin="round" stroke-miterlimit="10" x1="204.2" y1="137.7" x2="205.3" y2="138"/>
<line fill="none" stroke="#333333" stroke-width="3" stroke-linecap="round" stroke-linejoin="round" stroke-miterlimit="10" x1="206.4" y1="133.5" x2="206.9" y2="134.4"/>
<line fill="none" stroke="#333333" stroke-width="3" stroke-linecap="round" stroke-linejoin="round" stroke-miterlimit="10" x1="154.9" y1="127.2" x2="155.1" y2="128.9"/>
<line fill="none" stroke="#333333" stroke-width="3" stroke-linecap="round" stroke-linejoin="round" stroke-miterlimit="10" x1="148.9" y1="123" x2="149.9" y2="123.4"/>
<line fill="none" stroke="#333333" stroke-width="3" stroke-linecap="round" stroke-linejoin="round" stroke-miterlimit="10" x1="149.3" y1="127.7" x2="148.7" y2="128.6"/>
<line fill="none" stroke="#333333" stroke-width="3" stroke-linecap="round" stroke-linejoin="round" stroke-miterlimit="10" x1="211.7" y1="144.9" x2="209.9" y2="145.5"/>
<line fill="none" stroke="#333333" stroke-width="3" stroke-linecap="round" stroke-linejoin="round" stroke-miterlimit="10" x1="216.1" y1="146.1" x2="215.4" y2="147.1"/>
<line fill="none" stroke="#333333" stroke-width="3" stroke-linecap="round" stroke-linejoin="round" stroke-miterlimit="10" x1="237.8" y1="141.5" x2="236.6" y2="141"/>
<line fill="none" stroke="#333333" stroke-width="3" stroke-linecap="round" stroke-linejoin="round" stroke-miterlimit="10" x1="226.2" y1="162.2" x2="227" y2="162.4"/>
<line fill="none" stroke="#333333" stroke-width="3" stroke-linecap="round" stroke-linejoin="round" stroke-miterlimit="10" x1="231.4" y1="170.2" x2="231.2" y2="171.4"/>
<line fill="none" stroke="#333333" stroke-width="3" stroke-linecap="round" stroke-linejoin="round" stroke-miterlimit="10" x1="225.1" y1="166" x2="224" y2="166"/>
<line fill="none" stroke="#333333" stroke-width="3" stroke-linecap="round" stroke-linejoin="round" stroke-miterlimit="10" x1="256.1" y1="130.5" x2="257.1" y2="131.3"/>
</svg>
