<?xml version="1.0" encoding="utf-8"?>
<!-- Generator: Adobe Illustrator 18.0.0, SVG Export Plug-In . SVG Version: 6.00 Build 0)  -->
<!DOCTYPE svg PUBLIC "-//W3C//DTD SVG 1.1//EN" "http://www.w3.org/Graphics/SVG/1.1/DTD/svg11.dtd">
<svg version="1.1" id="图层_1" xmlns="http://www.w3.org/2000/svg" xmlns:xlink="http://www.w3.org/1999/xlink" x="0px" y="0px" width="340" height="340"
	 viewBox="0 0 340.2 340.2" enable-background="new 0 0 340.2 340.2" xml:space="preserve">
<path fill="none" stroke="#333333" stroke-width="5" stroke-linecap="round" stroke-linejoin="round" stroke-miterlimit="10" d="
	M141.1,254.4V89.7c40.1,35,55.5,97.4,39.9,164.7h21.2c-0.6-2.8-0.4-4.8,0.6-6.8c-0.6-3.6,0.2-6.2,1.9-8.1c-0.9-4.1-0.4-6.5,1.5-9.6
	c-0.7-3.7-0.5-6.4,0.9-9.2c-0.9-3.6-0.9-6.1,0-9.3c-1-3.1-1-6.1,0-8.6c-1.4-3.5-1.7-5.9-1.2-9c-1.5-3.1-1.8-5.3-1.5-8.8
	c-1.8-3-2.4-5.2-2.1-8.9c-2.1-2.7-3-4.7-2.8-8.4c-2.5-3-3.1-5-3.2-8.6c-2.2-2-3.3-4.5-3.5-7.6c-2.6-2.5-3.6-4.7-4-7.8
	c-2.3-2.4-3.7-4.7-4.2-8.3c-2-0.8-3.8-5.3-2.9-7.7h-10.2l-39.5,0"/>
<line fill="none" stroke="#333333" stroke-width="3" stroke-linecap="round" stroke-linejoin="round" stroke-miterlimit="10" x1="149.5" y1="71.1" x2="149.5" y2="127.8"/>
<line fill="none" stroke="#333333" stroke-width="3" stroke-linecap="round" stroke-linejoin="round" stroke-miterlimit="10" x1="150.4" y1="127.8" x2="150.4" y2="254.4"/>
<line fill="none" stroke="#333333" stroke-width="3" stroke-linecap="round" stroke-linejoin="round" stroke-miterlimit="10" x1="187.9" y1="127.8" x2="197.7" y2="127.8"/>
<line fill="none" stroke="#333333" stroke-width="3" stroke-linecap="round" stroke-linejoin="round" stroke-miterlimit="10" x1="185.3" y1="124.2" x2="200.3" y2="124.2"/>
<path fill="none" stroke="#333333" stroke-width="3" stroke-linecap="round" stroke-linejoin="round" stroke-miterlimit="10" d="
	M190.4,127.8c-0.6,1.1-0.3,2.5,0.8,3.2c1.1,0.8,2.5,0.8,3.6,0c1.1-0.8,1.4-2.1,0.8-3.2"/>
<line fill="none" stroke="#333333" stroke-width="3" stroke-linecap="round" stroke-linejoin="round" stroke-miterlimit="10" x1="186.1" y1="138" x2="193" y2="131.7"/>
<line fill="none" stroke="#333333" stroke-width="3" stroke-linecap="round" stroke-linejoin="round" stroke-miterlimit="10" x1="132" y1="133" x2="144.5" y2="133"/>
<line fill="none" stroke="#333333" stroke-width="3" stroke-linecap="round" stroke-linejoin="round" stroke-miterlimit="10" x1="132" y1="136.8" x2="144.5" y2="136.8"/>
<path fill="none" stroke="#333333" stroke-width="3" stroke-linecap="round" stroke-linejoin="round" stroke-miterlimit="10" d="
	M144.5,136.7c1-0.1,1.8-0.9,1.8-1.8c0-0.9-0.8-1.7-1.8-1.8"/>
<line fill="none" stroke="#333333" stroke-width="3" stroke-linecap="round" stroke-linejoin="round" stroke-miterlimit="10" x1="154.6" y1="134.8" x2="168.7" y2="134.8"/>
<line fill="none" stroke="#333333" stroke-width="3" stroke-linecap="round" stroke-linejoin="round" stroke-miterlimit="10" x1="154.6" y1="147.8" x2="168.7" y2="147.8"/>
<line fill="none" stroke="#333333" stroke-width="3" stroke-linecap="round" stroke-linejoin="round" stroke-miterlimit="10" x1="172.6" y1="147.8" x2="173.5" y2="147.8"/>
<line fill="none" stroke="#333333" stroke-width="3" stroke-linecap="round" stroke-linejoin="round" stroke-miterlimit="10" x1="177.1" y1="160.7" x2="178" y2="160.7"/>
<line fill="none" stroke="#333333" stroke-width="3" stroke-linecap="round" stroke-linejoin="round" stroke-miterlimit="10" x1="154.6" y1="160.7" x2="174.1" y2="160.7"/>
<line fill="none" stroke="#333333" stroke-width="3" stroke-linecap="round" stroke-linejoin="round" stroke-miterlimit="10" x1="184.1" y1="160.7" x2="190" y2="160.7"/>
<line fill="none" stroke="#333333" stroke-width="5" stroke-linecap="round" stroke-linejoin="round" stroke-miterlimit="10" x1="155.8" y1="173.7" x2="184.2" y2="173.7"/>
<line fill="none" stroke="#333333" stroke-width="3" stroke-linecap="round" stroke-linejoin="round" stroke-miterlimit="10" x1="186.6" y1="173.7" x2="192.6" y2="173.7"/>
<line fill="none" stroke="#333333" stroke-width="3" stroke-linecap="round" stroke-linejoin="round" stroke-miterlimit="10" x1="154.6" y1="186.6" x2="176.1" y2="186.6"/>
<line fill="none" stroke="#333333" stroke-width="3" stroke-linecap="round" stroke-linejoin="round" stroke-miterlimit="10" x1="179.8" y1="186.6" x2="180.9" y2="186.6"/>
<line fill="none" stroke="#333333" stroke-width="3" stroke-linecap="round" stroke-linejoin="round" stroke-miterlimit="10" x1="188.2" y1="186.6" x2="194.1" y2="186.6"/>
<line fill="none" stroke="#333333" stroke-width="3" stroke-linecap="round" stroke-linejoin="round" stroke-miterlimit="10" x1="188.8" y1="199.5" x2="194.9" y2="199.5"/>
<line fill="none" stroke="#333333" stroke-width="3" stroke-linecap="round" stroke-linejoin="round" stroke-miterlimit="10" x1="189" y1="212.5" x2="194.7" y2="212.5"/>
<line fill="none" stroke="#333333" stroke-width="3" stroke-linecap="round" stroke-linejoin="round" stroke-miterlimit="10" x1="187.8" y1="225.4" x2="193.5" y2="225.4"/>
<line fill="none" stroke="#333333" stroke-width="3" stroke-linecap="round" stroke-linejoin="round" stroke-miterlimit="10" x1="186" y1="238.4" x2="191.6" y2="238.4"/>
<line fill="none" stroke="#333333" stroke-width="3" stroke-linecap="round" stroke-linejoin="round" stroke-miterlimit="10" x1="154.6" y1="199.5" x2="180.9" y2="199.5"/>
<line fill="none" stroke="#333333" stroke-width="5" stroke-linecap="round" stroke-linejoin="round" stroke-miterlimit="10" x1="155.8" y1="212.5" x2="185.8" y2="212.5"/>
<line fill="none" stroke="#333333" stroke-width="3" stroke-linecap="round" stroke-linejoin="round" stroke-miterlimit="10" x1="160.5" y1="225.4" x2="180.2" y2="225.4"/>
<line fill="none" stroke="#333333" stroke-width="3" stroke-linecap="round" stroke-linejoin="round" stroke-miterlimit="10" x1="156.4" y1="225.4" x2="157.2" y2="225.4"/>
<line fill="none" stroke="#333333" stroke-width="3" stroke-linecap="round" stroke-linejoin="round" stroke-miterlimit="10" x1="154.6" y1="238.4" x2="178.9" y2="238.4"/>
<line fill="none" stroke="#333333" stroke-width="3" stroke-linecap="round" stroke-linejoin="round" stroke-miterlimit="10" x1="153.2" y1="101.9" x2="153.2" y2="127.7"/>
<line fill="none" stroke="#333333" stroke-width="3" stroke-linecap="round" stroke-linejoin="round" stroke-miterlimit="10" x1="175.5" y1="134.8" x2="177.4" y2="134.8"/>
<line fill="none" stroke="#333333" stroke-width="3" stroke-linecap="round" stroke-linejoin="round" stroke-miterlimit="10" x1="178" y1="140.9" x2="179.9" y2="140.9"/>
<line fill="none" stroke="#333333" stroke-width="3" stroke-linecap="round" stroke-linejoin="round" stroke-miterlimit="10" x1="180.4" y1="147.8" x2="183.2" y2="147.8"/>
<path fill="none" stroke="#333333" stroke-width="5" stroke-linecap="round" stroke-linejoin="round" stroke-miterlimit="10" d="
	M89.4,258.5l2.7-2.1c1.5-1.2,3.4-1.8,5.3-1.8h139.7c2,0,4,0.7,5.5,1.9l2.6,2"/>
<line fill="none" stroke="#333333" stroke-width="3" stroke-linecap="round" stroke-linejoin="round" stroke-miterlimit="10" x1="136" y1="137" x2="136" y2="254.4"/>
<line fill="none" stroke="#333333" stroke-width="3" stroke-linecap="round" stroke-linejoin="round" stroke-miterlimit="10" x1="154.6" y1="134.8" x2="154.6" y2="254.4"/>
<g>
	
		<line fill="none" stroke="#333333" stroke-width="3" stroke-linecap="round" stroke-linejoin="round" stroke-miterlimit="10" x1="124.1" y1="237.6" x2="127" y2="237.6"/>
	
		<line fill="none" stroke="#333333" stroke-width="3" stroke-linecap="round" stroke-linejoin="round" stroke-miterlimit="10" x1="121.2" y1="241.3" x2="129.9" y2="241.3"/>
	
		<line fill="none" stroke="#333333" stroke-width="3" stroke-linecap="round" stroke-linejoin="round" stroke-miterlimit="10" x1="122.9" y1="245.1" x2="128.2" y2="245.1"/>
	
		<line fill="none" stroke="#333333" stroke-width="3" stroke-linecap="round" stroke-linejoin="round" stroke-miterlimit="10" x1="124.9" y1="248.9" x2="126.2" y2="248.9"/>
</g>
<g>
	
		<line fill="none" stroke="#333333" stroke-width="3" stroke-linecap="round" stroke-linejoin="round" stroke-miterlimit="10" x1="108.8" y1="237.6" x2="111.8" y2="237.6"/>
	
		<line fill="none" stroke="#333333" stroke-width="3" stroke-linecap="round" stroke-linejoin="round" stroke-miterlimit="10" x1="105.9" y1="241.3" x2="114.7" y2="241.3"/>
	
		<line fill="none" stroke="#333333" stroke-width="3" stroke-linecap="round" stroke-linejoin="round" stroke-miterlimit="10" x1="107.6" y1="245.1" x2="112.9" y2="245.1"/>
	
		<line fill="none" stroke="#333333" stroke-width="3" stroke-linecap="round" stroke-linejoin="round" stroke-miterlimit="10" x1="109.6" y1="248.9" x2="110.9" y2="248.9"/>
</g>
<g>
	
		<line fill="none" stroke="#333333" stroke-width="3" stroke-linecap="round" stroke-linejoin="round" stroke-miterlimit="10" x1="217.4" y1="237.6" x2="220.3" y2="237.6"/>
	
		<line fill="none" stroke="#333333" stroke-width="3" stroke-linecap="round" stroke-linejoin="round" stroke-miterlimit="10" x1="214.5" y1="241.3" x2="223.3" y2="241.3"/>
	
		<line fill="none" stroke="#333333" stroke-width="3" stroke-linecap="round" stroke-linejoin="round" stroke-miterlimit="10" x1="216.2" y1="245.1" x2="221.5" y2="245.1"/>
	
		<line fill="none" stroke="#333333" stroke-width="3" stroke-linecap="round" stroke-linejoin="round" stroke-miterlimit="10" x1="218.2" y1="248.9" x2="219.5" y2="248.9"/>
</g>
<g>
	
		<line fill="none" stroke="#333333" stroke-width="3" stroke-linecap="round" stroke-linejoin="round" stroke-miterlimit="10" x1="160.5" y1="244.2" x2="162.1" y2="244.2"/>
	
		<line fill="none" stroke="#333333" stroke-width="3" stroke-linecap="round" stroke-linejoin="round" stroke-miterlimit="10" x1="161.3" y1="246.4" x2="161.3" y2="252.9"/>
</g>
<g>
	
		<line fill="none" stroke="#333333" stroke-width="3" stroke-linecap="round" stroke-linejoin="round" stroke-miterlimit="10" x1="166.7" y1="244.2" x2="168.3" y2="244.2"/>
	
		<line fill="none" stroke="#333333" stroke-width="3" stroke-linecap="round" stroke-linejoin="round" stroke-miterlimit="10" x1="167.5" y1="246.4" x2="167.5" y2="252.9"/>
</g>
<g>
	
		<line fill="none" stroke="#333333" stroke-width="3" stroke-linecap="round" stroke-linejoin="round" stroke-miterlimit="10" x1="173" y1="244.2" x2="174.6" y2="244.2"/>
	
		<line fill="none" stroke="#333333" stroke-width="3" stroke-linecap="round" stroke-linejoin="round" stroke-miterlimit="10" x1="173.8" y1="246.4" x2="173.8" y2="252.9"/>
</g>
<line fill="none" stroke="#333333" stroke-width="3" stroke-linecap="round" stroke-linejoin="round" stroke-miterlimit="10" x1="133.3" y1="263.9" x2="201.7" y2="263.9"/>
<line fill="none" stroke="#333333" stroke-width="3" stroke-linecap="round" stroke-linejoin="round" stroke-miterlimit="10" x1="126.4" y1="269.1" x2="112.9" y2="269.1"/>
<line fill="none" stroke="#333333" stroke-width="3" stroke-linecap="round" stroke-linejoin="round" stroke-miterlimit="10" x1="207.7" y1="269.1" x2="214.5" y2="269.1"/>
<line fill="none" stroke="#333333" stroke-width="3" stroke-linecap="round" stroke-linejoin="round" stroke-miterlimit="10" x1="214.5" y1="260.6" x2="227.1" y2="260.6"/>
</svg>
