<?xml version="1.0" encoding="utf-8"?>
<!-- Generator: Adobe Illustrator 18.0.0, SVG Export Plug-In . SVG Version: 6.00 Build 0)  -->
<!DOCTYPE svg PUBLIC "-//W3C//DTD SVG 1.1//EN" "http://www.w3.org/Graphics/SVG/1.1/DTD/svg11.dtd">
<svg version="1.1" id="图层_1" xmlns="http://www.w3.org/2000/svg" xmlns:xlink="http://www.w3.org/1999/xlink" x="0px" y="0px" width="340" height="340"
	 viewBox="0 0 340.2 340.2" enable-background="new 0 0 340.2 340.2" xml:space="preserve">
<path fill="none" stroke="#333333" stroke-width="3" stroke-linecap="round" stroke-linejoin="round" stroke-miterlimit="10" d="
	M68.6,226.5c35.3-31.6,59.9-68.1,72.1-106.9"/>
<path fill="none" stroke="#333333" stroke-width="3" stroke-linecap="round" stroke-linejoin="round" stroke-miterlimit="10" d="
	M187.8,133.9c-5.2,16.1-11.2,31.1-18,44.5c-1.4,2.7-2.8,5.4-4.2,7.9c-2.3,4.1-4.6,7.9-7,11.6c-0.6,0.9-1.2,1.9-1.8,2.8
	c-6.4,9.5-13.3,17.3-20.3,23.2c-3.5,2.9-7,5.3-10.6,7.2c0,0-0.1,0-0.1,0.1c-0.4,0.2-0.7,0.4-1.1,0.5"/>
<path fill="none" stroke="#333333" stroke-width="3" stroke-linecap="round" stroke-linejoin="round" stroke-miterlimit="10" d="
	M199,119.6c11.6,40.3,35.7,78,70.2,110.4"/>
<path fill="none" stroke="#333333" stroke-width="3" stroke-linecap="round" stroke-linejoin="round" stroke-miterlimit="10" d="
	M182.8,200.6c-0.6-0.9-1.2-1.8-1.8-2.7"/>
<path fill="none" stroke="#333333" stroke-width="3" stroke-linecap="round" stroke-linejoin="round" stroke-miterlimit="10" d="
	M174,186.3c-1.4-2.6-2.8-5.2-4.2-7.9v0c-6.7-13.3-12.8-28.4-18-44.5"/>
<path fill="none" stroke="#333333" stroke-width="3" stroke-linecap="round" stroke-linejoin="round" stroke-miterlimit="10" d="
	M93,251c0.2-5,3.4-9.5,8.1-11.3c4.7-1.8,10-0.7,13.6,2.8"/>
<path fill="none" stroke="#333333" stroke-width="3" stroke-linecap="round" stroke-linejoin="round" stroke-miterlimit="10" d="
	M114.7,242.4c4.4-10,15.5-15.3,26.1-12.6c10.6,2.7,17.7,12.8,16.7,23.7"/>
<path fill="none" stroke="#333333" stroke-width="3" stroke-linecap="round" stroke-linejoin="round" stroke-miterlimit="10" d="
	M157.4,253.4c2.7-0.9,5.7-0.7,8.2,0.7c2.5,1.4,4.3,3.7,5,6.5"/>
<path fill="none" stroke="#333333" stroke-width="3" stroke-linecap="round" stroke-linejoin="round" stroke-miterlimit="10" d="
	M151.6,236.2c-0.1-6.4,4.2-12.1,10.4-13.5s12.7,1.6,15.4,7.4"/>
<path fill="none" stroke="#333333" stroke-width="3" stroke-linecap="round" stroke-linejoin="round" stroke-miterlimit="10" d="
	M177.5,230.1c2.1-1.9,5-2.8,7.8-2.4c2.8,0.3,7.8,2.3,8.5,6.9"/>
<g>
	
		<line fill="none" stroke="#333333" stroke-width="3" stroke-linecap="round" stroke-linejoin="round" stroke-miterlimit="10" x1="274.1" y1="230" x2="226.4" y2="230"/>
	<path fill="none" stroke="#333333" stroke-width="3" stroke-linecap="round" stroke-linejoin="round" stroke-miterlimit="10" d="
		M226.4,230c-1-2.5-3.3-4.2-5.9-4.5c-2.6-0.3-5.3,0.8-6.8,3"/>
	<path fill="none" stroke="#333333" stroke-width="3" stroke-linecap="round" stroke-linejoin="round" stroke-miterlimit="10" d="
		M213.7,228.5c-2-4.4-7-6.7-11.7-5.2c-4.6,1.5-7.4,6.2-6.5,11"/>
	<path fill="none" stroke="#333333" stroke-width="3" stroke-linecap="round" stroke-linejoin="round" stroke-miterlimit="10" d="
		M195.4,234.3c-2.9,0.1-5.4,2.1-6.1,4.8c-0.7,2.8,0.4,5.7,2.9,7.2"/>
</g>
<line fill="none" stroke="#333333" stroke-width="3" stroke-linecap="round" stroke-linejoin="round" stroke-miterlimit="10" x1="149.1" y1="118.8" x2="187.8" y2="118.8"/>
<line fill="none" stroke="#333333" stroke-width="3" stroke-linecap="round" stroke-linejoin="round" stroke-miterlimit="10" x1="149.7" y1="130.4" x2="187.2" y2="130.4"/>
<line fill="none" stroke="#333333" stroke-width="5" stroke-linecap="round" stroke-linejoin="round" stroke-miterlimit="10" x1="141.8" y1="100.9" x2="141.8" y2="177.3"/>
<line fill="none" stroke="#333333" stroke-width="5" stroke-linecap="round" stroke-linejoin="round" stroke-miterlimit="10" x1="141.8" y1="177.3" x2="136.5" y2="177.3"/>
<path fill="none" stroke="#333333" stroke-width="5" stroke-linejoin="round" stroke-miterlimit="10" d="M136.5,177.3 
	136.5,202.2 136.5,229.1 "/>
<line fill="none" stroke="#333333" stroke-width="5" stroke-linecap="round" stroke-linejoin="round" stroke-miterlimit="10" x1="140" y1="100.9" x2="153.4" y2="100.9"/>
<line fill="none" stroke="#333333" stroke-width="5" stroke-linecap="round" stroke-linejoin="round" stroke-miterlimit="10" x1="151.8" y1="100.9" x2="151.8" y2="117.1"/>
<line fill="none" stroke="#333333" stroke-width="5" stroke-linecap="round" stroke-linejoin="round" stroke-miterlimit="10" x1="151.8" y1="132" x2="151.8" y2="177.3"/>
<line fill="none" stroke="#333333" stroke-width="5" stroke-linecap="round" stroke-linejoin="round" stroke-miterlimit="10" x1="151.8" y1="177.3" x2="156.9" y2="177.3"/>
<line fill="none" stroke="#333333" stroke-width="5" stroke-linejoin="round" stroke-miterlimit="10" x1="156.9" y1="197.9" x2="156.9" y2="225.2"/>
<line fill="none" stroke="#333333" stroke-width="5" stroke-linecap="round" stroke-linejoin="round" stroke-miterlimit="10" x1="156.9" y1="184.2" x2="156.9" y2="177.3"/>
<path fill="none" stroke="#333333" stroke-width="5" stroke-linecap="round" stroke-linejoin="round" stroke-miterlimit="10" d="
	M141.8,116.7"/>
<path fill="none" stroke="#333333" stroke-width="5" stroke-linecap="round" stroke-linejoin="round" stroke-miterlimit="10" d="
	M141.8,116.7"/>
<line fill="none" stroke="#333333" stroke-width="3" stroke-linecap="round" stroke-linejoin="round" stroke-miterlimit="10" x1="169.8" y1="118.8" x2="169.8" y2="124.3"/>
<path fill="none" stroke="#333333" stroke-width="3" stroke-linecap="round" stroke-linejoin="round" stroke-miterlimit="10" d="
	M182.7,186.3 178.5,186.3 172.2,186.3 169.3,186.3 165.9,186.3 162.5,186.3 159.6,186.3 153.4,186.3 149.1,186.3 "/>
<path fill="none" stroke="#333333" stroke-width="3" stroke-linecap="round" stroke-linejoin="round" stroke-miterlimit="10" d="
	M182.2,197.9 174.9,197.9 156.9,197.9 149.6,197.9 "/>
<line fill="none" stroke="#333333" stroke-width="3" stroke-linecap="round" stroke-linejoin="round" stroke-miterlimit="10" x1="152.4" y1="186.3" x2="152.4" y2="191.8"/>
<line fill="none" stroke="#333333" stroke-width="3" stroke-linecap="round" stroke-linejoin="round" stroke-miterlimit="10" x1="160.1" y1="186.3" x2="160.1" y2="191.8"/>
<line fill="none" stroke="#333333" stroke-width="3" stroke-linecap="round" stroke-linejoin="round" stroke-miterlimit="10" x1="167.8" y1="186.3" x2="167.8" y2="191.8"/>
<line fill="none" stroke="#333333" stroke-width="5" stroke-linecap="round" stroke-linejoin="round" stroke-miterlimit="10" x1="197.9" y1="100.9" x2="197.9" y2="177.3"/>
<line fill="none" stroke="#333333" stroke-width="5" stroke-linecap="round" stroke-linejoin="round" stroke-miterlimit="10" x1="197.9" y1="177.3" x2="203.2" y2="177.3"/>
<path fill="none" stroke="#333333" stroke-width="5" stroke-linejoin="round" stroke-miterlimit="10" d="M203.2,177.3 
	203.2,202.4 203.2,223 "/>
<line fill="none" stroke="#333333" stroke-width="5" stroke-linecap="round" stroke-linejoin="round" stroke-miterlimit="10" x1="199.5" y1="100.9" x2="186.2" y2="100.9"/>
<line fill="none" stroke="#333333" stroke-width="5" stroke-linecap="round" stroke-linejoin="round" stroke-miterlimit="10" x1="187.9" y1="100.9" x2="187.9" y2="133.4"/>
<line fill="none" stroke="#333333" stroke-width="5" stroke-linecap="round" stroke-linejoin="round" stroke-miterlimit="10" x1="187.9" y1="132" x2="187.9" y2="177.3"/>
<line fill="none" stroke="#333333" stroke-width="5" stroke-linecap="round" stroke-linejoin="round" stroke-miterlimit="10" x1="187.9" y1="177.3" x2="182.8" y2="177.3"/>
<line fill="none" stroke="#333333" stroke-width="5" stroke-linejoin="round" stroke-miterlimit="10" x1="182.8" y1="227.7" x2="182.8" y2="198.6"/>
<line fill="none" stroke="#333333" stroke-width="5" stroke-linecap="round" stroke-linejoin="round" stroke-miterlimit="10" x1="182.8" y1="200.6" x2="182.8" y2="177.3"/>
<path fill="none" stroke="#333333" stroke-width="5" stroke-linecap="round" stroke-linejoin="round" stroke-miterlimit="10" d="
	M141.8,116.7"/>
<g>
	
		<line fill="none" stroke="#333333" stroke-width="3" stroke-linecap="round" stroke-linejoin="round" stroke-miterlimit="10" x1="154.4" y1="118.8" x2="154.4" y2="124.3"/>
	
		<line fill="none" stroke="#333333" stroke-width="3" stroke-linecap="round" stroke-linejoin="round" stroke-miterlimit="10" x1="162.1" y1="118.8" x2="162.1" y2="124.3"/>
	
		<line fill="none" stroke="#333333" stroke-width="3" stroke-linecap="round" stroke-linejoin="round" stroke-miterlimit="10" x1="177.6" y1="118.8" x2="177.6" y2="124.3"/>
	
		<line fill="none" stroke="#333333" stroke-width="3" stroke-linecap="round" stroke-linejoin="round" stroke-miterlimit="10" x1="169.8" y1="118.8" x2="169.8" y2="124.3"/>
</g>
<line fill="none" stroke="#333333" stroke-width="3" stroke-linecap="round" stroke-linejoin="round" stroke-miterlimit="10" x1="175.6" y1="186.3" x2="175.6" y2="191.8"/>
<line fill="none" stroke="#333333" stroke-width="5" stroke-linecap="round" stroke-linejoin="round" stroke-miterlimit="10" x1="146.9" y1="100.9" x2="146.9" y2="94.2"/>
<line fill="none" stroke="#333333" stroke-width="5" stroke-linecap="round" stroke-linejoin="round" stroke-miterlimit="10" x1="192.8" y1="100.9" x2="192.8" y2="94.2"/>
<path fill="none" stroke="#333333" stroke-width="3" stroke-linecap="round" stroke-linejoin="round" stroke-miterlimit="10" d="
	M136.5,208.9c-3.6-1.2-7.5-0.7-10.7,1.2c-3.2,2-5.4,5.2-6,8.9"/>
<path fill="none" stroke="#333333" stroke-width="3" stroke-linecap="round" stroke-linejoin="round" stroke-miterlimit="10" d="
	M119.8,219c-2.1-0.7-4.5-0.1-6,1.4c-1.6,1.6-2.1,3.9-1.4,6"/>
<line fill="none" stroke="#333333" stroke-width="3" stroke-linecap="round" stroke-linejoin="round" stroke-miterlimit="10" x1="112.3" y1="226.5" x2="63.9" y2="226.5"/>
<line fill="none" stroke="#333333" stroke-width="3" stroke-linecap="round" stroke-linejoin="round" stroke-miterlimit="10" x1="171.3" y1="265.2" x2="171.3" y2="265.2"/>
<line fill="none" stroke="#333333" stroke-width="3" stroke-linecap="round" stroke-linejoin="round" stroke-miterlimit="10" x1="195.9" y1="249" x2="195.9" y2="249"/>
</svg>
