<?xml version="1.0" encoding="utf-8"?>
<!-- Generator: Adobe Illustrator 18.0.0, SVG Export Plug-In . SVG Version: 6.00 Build 0)  -->
<!DOCTYPE svg PUBLIC "-//W3C//DTD SVG 1.1//EN" "http://www.w3.org/Graphics/SVG/1.1/DTD/svg11.dtd">
<svg version="1.1" id="图层_1" xmlns="http://www.w3.org/2000/svg" xmlns:xlink="http://www.w3.org/1999/xlink" x="0px" y="0px"
	 viewBox="85.4 85.4 72 72" enable-background="new 85.4 85.4 72 72" xml:space="preserve">
<g>
	
		<line fill="none" stroke="#5C5F57" stroke-width="0.8892" stroke-linecap="round" stroke-linejoin="round" stroke-miterlimit="10" x1="136" y1="115.9" x2="138.5" y2="115.9"/>
	
		<path fill="none" stroke="#5C5F57" stroke-width="0.8892" stroke-linecap="round" stroke-linejoin="round" stroke-miterlimit="10" d="
		M138.5,115.9c0.3-0.5,0.7-0.9,1.3-1c0.6-0.1,1.2,0,1.6,0.3"/>
	
		<path fill="none" stroke="#5C5F57" stroke-width="0.8892" stroke-linecap="round" stroke-linejoin="round" stroke-miterlimit="10" d="
		M141.5,115.2c0.1-1.5,1.3-2.7,2.8-2.8c1.5-0.1,2.8,0.9,3.1,2.4"/>
	
		<path fill="none" stroke="#5C5F57" stroke-width="0.8892" stroke-linecap="round" stroke-linejoin="round" stroke-miterlimit="10" d="
		M147.4,114.8c0.5-0.5,1.2-0.6,1.9-0.4c0.6,0.3,1,0.9,1,1.6"/>
	
		<line fill="none" stroke="#5C5F57" stroke-width="0.8892" stroke-linecap="round" stroke-linejoin="round" stroke-miterlimit="10" x1="150.2" y1="116" x2="152.5" y2="116"/>
	
		<line fill="none" stroke="#5C5F57" stroke-width="0.8892" stroke-linecap="round" stroke-linejoin="round" stroke-miterlimit="10" x1="147.7" y1="118.2" x2="149.1" y2="118.2"/>
</g>
<path fill="none" stroke="#5C5F57" stroke-width="0.8892" stroke-linecap="round" stroke-linejoin="round" stroke-miterlimit="10" d="
	M94.1,117.9h1.5c0.1-0.7,0.6-1.2,1.2-1.3s1.3,0.3,1.6,0.9c0.2,0.6,0,1.4-0.5,1.7h5.1"/>
<line fill="none" stroke="#5C5F57" stroke-width="0.8892" stroke-linecap="round" stroke-linejoin="round" stroke-miterlimit="10" x1="94.8" y1="119.1" x2="91.6" y2="119.1"/>
<path fill="none" stroke="#5C5F57" stroke-width="1.482" stroke-linecap="round" stroke-linejoin="round" stroke-miterlimit="10" d="
	M123,104.8c0,0,0-0.6,0-1c0-1.5-1-1.6-1-1.6v-1.1c0,0,0.3-0.5,0.4-1c0.5-1.5-1.1-1.5-1.1-1.5s-1.5-0.1-1.1,1.5c0.1,0.5,0.4,1,0.4,1
	v1.1c0,0-1,0.1-1,1.6c0,0.3,0,1,0,1"/>
<path fill="none" stroke="#5C5F57" stroke-width="1.482" stroke-linecap="round" stroke-linejoin="round" stroke-miterlimit="10" d="
	M119.8,104.8c-1.9,2.1-4.4,3.7-7.2,4.6"/>
<path fill="none" stroke="#5C5F57" stroke-width="1.482" stroke-linecap="round" stroke-linejoin="round" stroke-miterlimit="10" d="
	M123,104.8c1.9,2.1,4.4,3.7,7.2,4.6"/>
<path fill="none" stroke="#5C5F57" stroke-width="1.482" stroke-linecap="round" stroke-linejoin="round" stroke-miterlimit="10" d="
	M112.6,109.4c0,0-3.7,0.9-3.7,2.5s1.8,2.2,2.1,2.4c0.4,0.6,1,0.9,1.3,1c0,0.5,0,2.1,0,2.1s-6.2,1.6-7.3,2.7c-0.6,0.6-0.6,1-0.6,1.2
	s0.3,1,2.1,1.9c0.6,0.3,1.3,0.7,1.3,0.7v0.9c0,0-0.5,0.2-0.5,1.2c-1.4,0.6-5,2-5,2s-2,1,0,2.3c0.9,0.5,2.1,0.7,2.1,0.7v6.1h33.7
	v-6.1c0,0,1.2-0.2,2.1-0.7c2-1.3,0-2.3,0-2.3s-3.5-1.4-5-2c0-1-0.5-1.2-0.5-1.2v-0.9c0,0,0.7-0.3,1.3-0.7c1.8-0.8,2.1-1.6,2.1-1.9
	s0-0.7-0.6-1.2c-1.1-1.1-7.3-2.7-7.3-2.7s0-1.6,0-2.1c0.3-0.1,0.9-0.4,1.3-1c0.3-0.2,2.1-0.8,2.1-2.4c0-1.6-3.7-2.5-3.7-2.5"/>
<path fill="none" stroke="#5C5F57" stroke-width="0.8892" stroke-linecap="round" stroke-linejoin="round" stroke-miterlimit="10" d="
	M119.8,104.1c0,0,0.6-0.4,1.6-0.4c1,0,1.6,0.4,1.6,0.4"/>
<path fill="none" stroke="#5C5F57" stroke-width="0.8892" stroke-linecap="round" stroke-linejoin="round" stroke-miterlimit="10" d="
	M110.1,110.4c0,0,4.5-1.8,11.3-1.8c6.8,0,11.3,1.8,11.3,1.8"/>
<path fill="none" stroke="#5C5F57" stroke-width="0.8892" stroke-linecap="round" stroke-linejoin="round" stroke-miterlimit="10" d="
	M105.5,119.8"/>
<path fill="none" stroke="#5C5F57" stroke-width="0.8892" stroke-linecap="round" stroke-linejoin="round" stroke-miterlimit="10" d="
	M105.5,119.8"/>
<path fill="none" stroke="#5C5F57" stroke-width="0.8892" stroke-linecap="round" stroke-linejoin="round" stroke-miterlimit="10" d="
	M105.5,119.8"/>
<path fill="none" stroke="#5C5F57" stroke-width="0.8892" stroke-linecap="round" stroke-linejoin="round" stroke-miterlimit="10" d="
	M137.3,119.8"/>
<path fill="none" stroke="#5C5F57" stroke-width="0.8892" stroke-linecap="round" stroke-linejoin="round" stroke-miterlimit="10" d="
	M105.5,119.8"/>
<path fill="none" stroke="#5C5F57" stroke-width="0.8892" stroke-linecap="round" stroke-linejoin="round" stroke-miterlimit="10" d="
	M137.3,119.8"/>
<path fill="none" stroke="#5C5F57" stroke-width="0.8892" stroke-linecap="round" stroke-linejoin="round" stroke-miterlimit="10" d="
	M105.5,119.8"/>
<path fill="none" stroke="#5C5F57" stroke-width="0.8892" stroke-linecap="round" stroke-linejoin="round" stroke-miterlimit="10" d="
	M137.3,119.8"/>
<path fill="none" stroke="#5C5F57" stroke-width="0.8892" stroke-linecap="round" stroke-linejoin="round" stroke-miterlimit="10" d="
	M105.5,119.8"/>
<path fill="none" stroke="#5C5F57" stroke-width="0.8892" stroke-linecap="round" stroke-linejoin="round" stroke-miterlimit="10" d="
	M137.3,119.8"/>
<path fill="none" stroke="#5C5F57" stroke-width="0.8892" stroke-linecap="round" stroke-linejoin="round" stroke-miterlimit="10" d="
	M105.5,119.8"/>
<path fill="none" stroke="#5C5F57" stroke-width="0.8892" stroke-linecap="round" stroke-linejoin="round" stroke-miterlimit="10" d="
	M137.3,119.8"/>
<path fill="none" stroke="#5C5F57" stroke-width="0.8892" stroke-linecap="round" stroke-linejoin="round" stroke-miterlimit="10" d="
	M105.5,119.8"/>
<path fill="none" stroke="#5C5F57" stroke-width="0.8892" stroke-linecap="round" stroke-linejoin="round" stroke-miterlimit="10" d="
	M137.3,119.8"/>
<path fill="none" stroke="#5C5F57" stroke-width="0.8892" stroke-linecap="round" stroke-linejoin="round" stroke-miterlimit="10" d="
	M105.5,119.8"/>
<path fill="none" stroke="#5C5F57" stroke-width="0.8892" stroke-linecap="round" stroke-linejoin="round" stroke-miterlimit="10" d="
	M137.3,119.8"/>
<path fill="none" stroke="#5C5F57" stroke-width="0.8892" stroke-linecap="round" stroke-linejoin="round" stroke-miterlimit="10" d="
	M105.5,119.8"/>
<path fill="none" stroke="#5C5F57" stroke-width="0.8892" stroke-linecap="round" stroke-linejoin="round" stroke-miterlimit="10" d="
	M137.3,119.8"/>
<path fill="none" stroke="#5C5F57" stroke-width="0.8892" stroke-linecap="round" stroke-linejoin="round" stroke-miterlimit="10" d="
	M105.5,119.8"/>
<path fill="none" stroke="#5C5F57" stroke-width="0.8892" stroke-linecap="round" stroke-linejoin="round" stroke-miterlimit="10" d="
	M137.3,119.8"/>
<path fill="none" stroke="#5C5F57" stroke-width="0.8892" stroke-linecap="round" stroke-linejoin="round" stroke-miterlimit="10" d="
	M105.5,119.8"/>
<path fill="none" stroke="#5C5F57" stroke-width="0.8892" stroke-linecap="round" stroke-linejoin="round" stroke-miterlimit="10" d="
	M137.3,119.8"/>
<path fill="none" stroke="#5C5F57" stroke-width="0.8892" stroke-linecap="round" stroke-linejoin="round" stroke-miterlimit="10" d="
	M105.5,119.8"/>
<path fill="none" stroke="#5C5F57" stroke-width="0.8892" stroke-linecap="round" stroke-linejoin="round" stroke-miterlimit="10" d="
	M137.3,119.8"/>
<path fill="none" stroke="#5C5F57" stroke-width="0.8892" stroke-linecap="round" stroke-linejoin="round" stroke-miterlimit="10" d="
	M105.5,119.8"/>
<path fill="none" stroke="#5C5F57" stroke-width="0.8892" stroke-linecap="round" stroke-linejoin="round" stroke-miterlimit="10" d="
	M137.3,119.8"/>
<path fill="none" stroke="#5C5F57" stroke-width="0.8892" stroke-linecap="round" stroke-linejoin="round" stroke-miterlimit="10" d="
	M105.5,119.8"/>
<path fill="none" stroke="#5C5F57" stroke-width="0.8892" stroke-linecap="round" stroke-linejoin="round" stroke-miterlimit="10" d="
	M137.3,119.8"/>
<path fill="none" stroke="#5C5F57" stroke-width="0.8892" stroke-linecap="round" stroke-linejoin="round" stroke-miterlimit="10" d="
	M105.5,119.8"/>
<path fill="none" stroke="#5C5F57" stroke-width="0.8892" stroke-linecap="round" stroke-linejoin="round" stroke-miterlimit="10" d="
	M137.3,119.8"/>
<path fill="none" stroke="#5C5F57" stroke-width="0.8892" stroke-linecap="round" stroke-linejoin="round" stroke-miterlimit="10" d="
	M105.5,119.8"/>
<path fill="none" stroke="#5C5F57" stroke-width="0.8892" stroke-linecap="round" stroke-linejoin="round" stroke-miterlimit="10" d="
	M137.3,119.8"/>
<path fill="none" stroke="#5C5F57" stroke-width="0.8892" stroke-linecap="round" stroke-linejoin="round" stroke-miterlimit="10" d="
	M105.5,119.8"/>
<path fill="none" stroke="#5C5F57" stroke-width="0.8892" stroke-linecap="round" stroke-linejoin="round" stroke-miterlimit="10" d="
	M137.3,119.8"/>
<path fill="none" stroke="#5C5F57" stroke-width="0.8892" stroke-linecap="round" stroke-linejoin="round" stroke-miterlimit="10" d="
	M105.5,119.8"/>
<path fill="none" stroke="#5C5F57" stroke-width="0.8892" stroke-linecap="round" stroke-linejoin="round" stroke-miterlimit="10" d="
	M137.3,119.8"/>
<path fill="none" stroke="#5C5F57" stroke-width="0.8892" stroke-linecap="round" stroke-linejoin="round" stroke-miterlimit="10" d="
	M104.4,121.4c0,0,4.8-3,17-3s17,3,17,3"/>
<path fill="none" stroke="#5C5F57" stroke-width="0.8892" stroke-linecap="round" stroke-linejoin="round" stroke-miterlimit="10" d="
	M101.5,129.2c0,0,6.8-3,19.9-3s19.9,3,19.9,3"/>
<path fill="none" stroke="#5C5F57" stroke-width="0.8892" stroke-linecap="round" stroke-linejoin="round" stroke-miterlimit="10" d="
	M112.3,116.5c0,0,2.9-1.2,9.1-1.2s9.1,1.2,9.1,1.2"/>
<path fill="none" stroke="#5C5F57" stroke-width="0.8892" stroke-linecap="round" stroke-linejoin="round" stroke-miterlimit="10" d="
	M121.4,115c-0.7,0-1.7,0-2,0c-0.1,0.3-0.4,0.6-0.6,0.4c-0.1-0.2,0.3-0.6,0.3-0.6v-5.1c0,0-0.9-0.1-0.7-0.3c0.2-0.3,0.7,0.1,0.7,0.1
	h4.5c0,0,0.5-0.4,0.7-0.1s-0.7,0.3-0.7,0.3v5.1c0,0,0.4,0.3,0.3,0.6s-0.4-0.1-0.6-0.4C123.2,115,122.1,115,121.4,115z"/>
<path fill="none" stroke="#5C5F57" stroke-width="0.8892" stroke-linecap="round" stroke-linejoin="round" stroke-miterlimit="10" d="
	M107.3,123.7c0,0,3.4-2.3,14.1-2.3s14.1,2.3,14.1,2.3"/>
<path fill="none" stroke="#5C5F57" stroke-width="0.8892" stroke-linecap="round" stroke-linejoin="round" stroke-miterlimit="10" d="
	M107.8,124.8c0,0,4.8-1.6,13.6-1.6s13.6,1.6,13.6,1.6"/>
<path fill="none" stroke="#5C5F57" stroke-width="0.8892" stroke-linecap="round" stroke-linejoin="round" stroke-miterlimit="10" d="
	M103.6,130.8c0,0,4.2-2.6,17.8-2.6s17.8,2.6,17.8,2.6"/>
<path fill="none" stroke="#5C5F57" stroke-width="0.8892" stroke-linecap="round" stroke-linejoin="round" stroke-miterlimit="10" d="
	M110.8,114.1c1.4-1,5.1-2,8.4-2"/>
<path fill="none" stroke="#5C5F57" stroke-width="0.8892" stroke-linecap="round" stroke-linejoin="round" stroke-miterlimit="10" d="
	M132,114.1c-1.4-1-5.1-2-8.4-2"/>
<line fill="none" stroke="#5C5F57" stroke-width="0.8892" stroke-linecap="round" stroke-linejoin="round" stroke-miterlimit="10" x1="110.8" y1="122.4" x2="110.8" y2="124"/>
<line fill="none" stroke="#5C5F57" stroke-width="0.8892" stroke-linecap="round" stroke-linejoin="round" stroke-miterlimit="10" x1="132" y1="122.4" x2="132" y2="124"/>
<line fill="none" stroke="#5C5F57" stroke-width="0.8892" stroke-linecap="round" stroke-linejoin="round" stroke-miterlimit="10" x1="111.8" y1="122.2" x2="111.8" y2="124"/>
<line fill="none" stroke="#5C5F57" stroke-width="0.8892" stroke-linecap="round" stroke-linejoin="round" stroke-miterlimit="10" x1="131" y1="122.2" x2="131" y2="124"/>
<line fill="none" stroke="#5C5F57" stroke-width="0.8892" stroke-linecap="round" stroke-linejoin="round" stroke-miterlimit="10" x1="117.1" y1="121.6" x2="117.1" y2="123.4"/>
<line fill="none" stroke="#5C5F57" stroke-width="0.8892" stroke-linecap="round" stroke-linejoin="round" stroke-miterlimit="10" x1="125.8" y1="121.6" x2="125.8" y2="123.4"/>
<line fill="none" stroke="#5C5F57" stroke-width="0.8892" stroke-linecap="round" stroke-linejoin="round" stroke-miterlimit="10" x1="118.1" y1="121.5" x2="118.1" y2="123.3"/>
<line fill="none" stroke="#5C5F57" stroke-width="0.8892" stroke-linecap="round" stroke-linejoin="round" stroke-miterlimit="10" x1="124.8" y1="121.5" x2="124.8" y2="123.3"/>
<line fill="none" stroke="#5C5F57" stroke-width="0.8892" stroke-linecap="round" stroke-linejoin="round" stroke-miterlimit="10" x1="116.5" y1="128.4" x2="116.5" y2="137.1"/>
<line fill="none" stroke="#5C5F57" stroke-width="0.8892" stroke-linecap="round" stroke-linejoin="round" stroke-miterlimit="10" x1="126.4" y1="128.4" x2="126.4" y2="137.1"/>
<line fill="none" stroke="#5C5F57" stroke-width="0.8892" stroke-linecap="round" stroke-linejoin="round" stroke-miterlimit="10" x1="108.7" y1="129.3" x2="108.7" y2="137.1"/>
<line fill="none" stroke="#5C5F57" stroke-width="0.8892" stroke-linecap="round" stroke-linejoin="round" stroke-miterlimit="10" x1="134.2" y1="129.3" x2="134.2" y2="137.1"/>
<line fill="none" stroke="#5C5F57" stroke-width="1.482" stroke-linecap="round" stroke-linejoin="round" stroke-miterlimit="10" x1="109.2" y1="137.1" x2="96.1" y2="137.1"/>
<line fill="none" stroke="#5C5F57" stroke-width="1.482" stroke-linecap="round" stroke-linejoin="round" stroke-miterlimit="10" x1="133.6" y1="137.1" x2="146.7" y2="137.1"/>
<line fill="none" stroke="#5C5F57" stroke-width="0.8892" stroke-linecap="round" stroke-linejoin="round" stroke-miterlimit="10" x1="113.9" y1="141.2" x2="104.3" y2="141.2"/>
<line fill="none" stroke="#5C5F57" stroke-width="0.8892" stroke-linecap="round" stroke-linejoin="round" stroke-miterlimit="10" x1="128.9" y1="141.2" x2="138.6" y2="141.2"/>
<line fill="none" stroke="#5C5F57" stroke-width="0.8892" stroke-linecap="round" stroke-linejoin="round" stroke-miterlimit="10" x1="101.5" y1="141.2" x2="101" y2="141.2"/>
<line fill="none" stroke="#5C5F57" stroke-width="0.8892" stroke-linecap="round" stroke-linejoin="round" stroke-miterlimit="10" x1="141.3" y1="141.2" x2="141.8" y2="141.2"/>
<line fill="none" stroke="#5C5F57" stroke-width="0.8892" stroke-linecap="round" stroke-linejoin="round" stroke-miterlimit="10" x1="115.2" y1="137.1" x2="112.6" y2="146.7"/>
<line fill="none" stroke="#5C5F57" stroke-width="0.8892" stroke-linecap="round" stroke-linejoin="round" stroke-miterlimit="10" x1="127.6" y1="137.1" x2="130.2" y2="146.7"/>
<line fill="none" stroke="#5C5F57" stroke-width="0.8892" stroke-linecap="round" stroke-linejoin="round" stroke-miterlimit="10" x1="110.5" y1="146.7" x2="114.3" y2="146.7"/>
<line fill="none" stroke="#5C5F57" stroke-width="0.8892" stroke-linecap="round" stroke-linejoin="round" stroke-miterlimit="10" x1="128.6" y1="146.7" x2="132.3" y2="146.7"/>
<line fill="none" stroke="#5C5F57" stroke-width="0.8892" stroke-linecap="round" stroke-linejoin="round" stroke-miterlimit="10" x1="108.1" y1="146.7" x2="106.9" y2="146.7"/>
<line fill="none" stroke="#5C5F57" stroke-width="0.8892" stroke-linecap="round" stroke-linejoin="round" stroke-miterlimit="10" x1="135.6" y1="146.7" x2="134.4" y2="146.7"/>
</svg>
