<?xml version="1.0" encoding="utf-8"?>
<!-- Generator: Adobe Illustrator 18.0.0, SVG Export Plug-In . SVG Version: 6.00 Build 0)  -->
<!DOCTYPE svg PUBLIC "-//W3C//DTD SVG 1.1//EN" "http://www.w3.org/Graphics/SVG/1.1/DTD/svg11.dtd">
<svg version="1.1" id="图层_1" xmlns="http://www.w3.org/2000/svg" xmlns:xlink="http://www.w3.org/1999/xlink" x="0px" y="0px"
	 viewBox="85.4 85.4 72 72" enable-background="new 85.4 85.4 72 72" xml:space="preserve">
<g>
	<g>
		
			<path fill="none" stroke="#5C5F57" stroke-width="1.4792" stroke-linecap="round" stroke-linejoin="round" stroke-miterlimit="10" d="
			M121.9,93.9c0,0-0.8,0-0.8,0.4c0,0,0.1,2.3-1.1,3.7c-1.3,1-2.2,2.5-1.1,4.1c0,0-1.9,0.7-1.9,2.7c0,1.9,1.1,2.4,1.1,2.4l-4.1,0.9
			v1.1l3.6,0.7v2.5c0,0-1.4,0.2-1.4,1.6c0,0.8,0.9,1.3,0.9,1.3l-4.5,1.5v1.1l2.8,0.6c0,0-3.8,1.9-3.8,7c0,3.5,2.4,5.9,3.9,7.2
			c0-0.1-0.5,0.8-0.5,0.8v1.8l-1.8,1l-1.6,2.6v4.1c0,0,2.5,1.2,10.3,1.2l0,0l0,0c7.8,0,10.3-1.2,10.3-1.2v-4.1l-1.6-2.6l-1.8-1v-1.8
			c0,0-0.5-0.9-0.5-0.8c1.5-1.3,3.9-3.7,3.9-7.2c0-5.1-3.8-7-3.8-7l2.8-0.6v-1.1l-4.5-1.5c0,0,0.9-0.4,0.9-1.3
			c0-1.4-1.4-1.6-1.4-1.6v-2.5l3.6-0.7v-1.1l-4.1-0.9c0,0,1.1-0.4,1.1-2.4s-1.9-2.7-1.9-2.7c1.1-1.6,0.2-3.1-1.1-4.1
			c-1.2-1.4-1.1-3.7-1.1-3.7C122.6,93.9,121.9,93.9,121.9,93.9"/>
		
			<path fill="none" stroke="#5C5F57" stroke-width="0.8875" stroke-linecap="round" stroke-linejoin="round" stroke-miterlimit="10" d="
			M124.8,102.3c0,0-1.1-0.3-2.9-0.3s-2.9,0.3-2.9,0.3"/>
		
			<path fill="none" stroke="#5C5F57" stroke-width="0.8875" stroke-linecap="round" stroke-linejoin="round" stroke-miterlimit="10" d="
			M125.6,107.4c0,0-1.4-0.3-3.8-0.3s-3.8,0.3-3.8,0.3"/>
		
			<path fill="none" stroke="#5C5F57" stroke-width="0.8875" stroke-linecap="round" stroke-linejoin="round" stroke-miterlimit="10" d="
			M126,109.8c0,0-1.6-0.3-4.1-0.3s-4.1,0.3-4.1,0.3"/>
		
			<path fill="none" stroke="#5C5F57" stroke-width="0.8875" stroke-linecap="round" stroke-linejoin="round" stroke-miterlimit="10" d="
			M126,112.6c0,0-1.6-0.3-4.1-0.3c-2.6,0-4.1,0.3-4.1,0.3"/>
		
			<path fill="none" stroke="#5C5F57" stroke-width="0.8875" stroke-linecap="round" stroke-linejoin="round" stroke-miterlimit="10" d="
			M126.7,115.5c0,0-1.8-0.4-4.8-0.4c-2.9,0-4.8,0.4-4.8,0.4"/>
		
			<line fill="none" stroke="#5C5F57" stroke-width="0.8875" stroke-linecap="round" stroke-linejoin="round" stroke-miterlimit="10" x1="115.2" y1="118.5" x2="128.6" y2="118.5"/>
		
			<path fill="none" stroke="#5C5F57" stroke-width="0.8875" stroke-linecap="round" stroke-linejoin="round" stroke-miterlimit="10" d="
			M115.2,132.7c2.6,0.3,4.7,0.5,6.7,0.4c2,0,4.1-0.1,6.7-0.4"/>
		
			<path fill="none" stroke="#5C5F57" stroke-width="0.8875" stroke-linecap="round" stroke-linejoin="round" stroke-miterlimit="10" d="
			M115.2,135.6c2.6,0.3,4.7,0.5,6.7,0.4c2,0,4.1-0.1,6.7-0.4"/>
		
			<path fill="none" stroke="#5C5F57" stroke-width="0.8875" stroke-linecap="round" stroke-linejoin="round" stroke-miterlimit="10" d="
			M112,138.8c3.9,0.5,6.9,0.8,9.9,0.7c3,0,6-0.2,9.9-0.7"/>
		
			<circle fill="none" stroke="#5C5F57" stroke-width="0.8875" stroke-linecap="round" stroke-linejoin="round" stroke-miterlimit="10" cx="117.1" cy="126.1" r="2.1"/>
		
			<path fill="none" stroke="#5C5F57" stroke-width="0.8875" stroke-linecap="round" stroke-linejoin="round" stroke-miterlimit="10" d="
			M117.5,128.1c-0.9-0.2-1.6-1-1.6-2c0-1,0.7-1.8,1.6-2"/>
		
			<ellipse fill="none" stroke="#5C5F57" stroke-width="0.8875" stroke-linecap="round" stroke-linejoin="round" stroke-miterlimit="10" cx="128.1" cy="126.1" rx="1.5" ry="2.1"/>
		
			<path fill="none" stroke="#5C5F57" stroke-width="0.8875" stroke-linecap="round" stroke-linejoin="round" stroke-miterlimit="10" d="
			M127.8,124c0.5,0.2,0.9,1,0.9,2c0,1-0.4,1.8-0.9,2"/>
		
			<line fill="none" stroke="#5C5F57" stroke-width="0.8875" stroke-linecap="round" stroke-linejoin="round" stroke-miterlimit="10" x1="132.2" y1="140.7" x2="140.3" y2="140.7"/>
		
			<line fill="none" stroke="#5C5F57" stroke-width="0.8875" stroke-linecap="round" stroke-linejoin="round" stroke-miterlimit="10" x1="143.3" y1="140.7" x2="144.2" y2="140.7"/>
		
			<line fill="none" stroke="#5C5F57" stroke-width="0.8875" stroke-linecap="round" stroke-linejoin="round" stroke-miterlimit="10" x1="112.8" y1="136.7" x2="97.1" y2="136.7"/>
		
			<line fill="none" stroke="#5C5F57" stroke-width="0.8875" stroke-linecap="round" stroke-linejoin="round" stroke-miterlimit="10" x1="94.2" y1="136.7" x2="93.1" y2="136.7"/>
		
			<line fill="none" stroke="#5C5F57" stroke-width="0.8875" stroke-linecap="round" stroke-linejoin="round" stroke-miterlimit="10" x1="130" y1="131.1" x2="144.7" y2="131.1"/>
		
			<line fill="none" stroke="#5C5F57" stroke-width="0.8875" stroke-linecap="round" stroke-linejoin="round" stroke-miterlimit="10" x1="148.1" y1="131.1" x2="149.7" y2="131.1"/>
		
			<line fill="none" stroke="#5C5F57" stroke-width="0.8875" stroke-linecap="round" stroke-linejoin="round" stroke-miterlimit="10" x1="136.3" y1="135.6" x2="138.6" y2="135.6"/>
		
			<line fill="none" stroke="#5C5F57" stroke-width="0.8875" stroke-linecap="round" stroke-linejoin="round" stroke-miterlimit="10" x1="105.8" y1="143" x2="103.9" y2="143"/>
		
			<line fill="none" stroke="#5C5F57" stroke-width="0.8875" stroke-linecap="round" stroke-linejoin="round" stroke-miterlimit="10" x1="112.4" y1="147.1" x2="110.7" y2="147.1"/>
		
			<line fill="none" stroke="#5C5F57" stroke-width="0.8875" stroke-linecap="round" stroke-linejoin="round" stroke-miterlimit="10" x1="111.6" y1="132.3" x2="110.3" y2="132.3"/>
		
			<line fill="none" stroke="#5C5F57" stroke-width="0.8875" stroke-linecap="round" stroke-linejoin="round" stroke-miterlimit="10" x1="106.1" y1="125.6" x2="102.2" y2="125.6"/>
		
			<line fill="none" stroke="#5C5F57" stroke-width="0.8875" stroke-linecap="round" stroke-linejoin="round" stroke-miterlimit="10" x1="121.9" y1="148.8" x2="128.6" y2="148.8"/>
		
			<line fill="none" stroke="#5C5F57" stroke-width="0.8875" stroke-linecap="round" stroke-linejoin="round" stroke-miterlimit="10" x1="130.7" y1="148.8" x2="131.7" y2="148.8"/>
		
			<path fill="none" stroke="#5C5F57" stroke-width="0.8875" stroke-linecap="round" stroke-linejoin="round" stroke-miterlimit="10" d="
			M118.7,104.3c0.2-0.7,1-1,1.4-1"/>
		
			<line fill="none" stroke="#5C5F57" stroke-width="0.8875" stroke-linecap="round" stroke-linejoin="round" stroke-miterlimit="10" x1="118.5" y1="105.2" x2="118.5" y2="105.2"/>
		
			<line fill="none" stroke="#5C5F57" stroke-width="0.8875" stroke-linecap="round" stroke-linejoin="round" stroke-miterlimit="10" x1="119" y1="110.7" x2="119" y2="111.3"/>
		
			<line fill="none" stroke="#5C5F57" stroke-width="0.8875" stroke-linecap="round" stroke-linejoin="round" stroke-miterlimit="10" x1="121.9" y1="110.5" x2="121.9" y2="111.2"/>
		
			<line fill="none" stroke="#5C5F57" stroke-width="0.8875" stroke-linecap="round" stroke-linejoin="round" stroke-miterlimit="10" x1="124.8" y1="110.7" x2="124.8" y2="111.3"/>
		
			<line fill="none" stroke="#5C5F57" stroke-width="0.8875" stroke-linecap="round" stroke-linejoin="round" stroke-miterlimit="10" x1="124.8" y1="134.9" x2="124.8" y2="134.3"/>
		
			<line fill="none" stroke="#5C5F57" stroke-width="0.8875" stroke-linecap="round" stroke-linejoin="round" stroke-miterlimit="10" x1="121.9" y1="135.1" x2="121.9" y2="134.4"/>
		
			<line fill="none" stroke="#5C5F57" stroke-width="0.8875" stroke-linecap="round" stroke-linejoin="round" stroke-miterlimit="10" x1="119" y1="134.9" x2="119" y2="134.3"/>
		
			<line fill="none" stroke="#5C5F57" stroke-width="0.8875" stroke-linecap="round" stroke-linejoin="round" stroke-miterlimit="10" x1="116.5" y1="134.7" x2="116.5" y2="134"/>
		
			<line fill="none" stroke="#5C5F57" stroke-width="0.8875" stroke-linecap="round" stroke-linejoin="round" stroke-miterlimit="10" x1="127" y1="134.7" x2="127" y2="134"/>
		
			<path fill="none" stroke="#5C5F57" stroke-width="0.8875" stroke-linecap="round" stroke-linejoin="round" stroke-miterlimit="10" d="
			M113.6,123.4c0.4-1.7,1.7-3.1,3.3-3.8"/>
		
			<line fill="none" stroke="#5C5F57" stroke-width="0.8875" stroke-linecap="round" stroke-linejoin="round" stroke-miterlimit="10" x1="113.3" y1="124.6" x2="113.3" y2="124.6"/>
	</g>
</g>
</svg>
